<svg xmlns="http://www.w3.org/2000/svg" xmlns:xlink="http://www.w3.org/1999/xlink" width="250" zoomAndPan="magnify" viewBox="0 0 187.5 112.499997" height="150" preserveAspectRatio="xMidYMid meet" version="1.0"><defs><g/><clipPath id="id1"><path d="M 14 43 L 54 43 L 54 64 L 14 64 Z M 14 43 " clip-rule="nonzero"/></clipPath><clipPath id="id2"><path d="M 33.855469 43.863281 L 14.429688 52.433594 L 33.855469 63.453125 L 53.28125 52.433594 Z M 33.855469 43.863281 " clip-rule="nonzero"/></clipPath><linearGradient x1="32" gradientTransform="matrix(1.214064, 0, 0, 1.22453, -4.993837, 14.473848)" y1="24.000002" x2="32" gradientUnits="userSpaceOnUse" y2="40.000002" id="id3"><stop stop-opacity="1" stop-color="rgb(45.809937%, 77.285767%, 100%)" offset="0"/><stop stop-opacity="1" stop-color="rgb(45.988464%, 77.244568%, 100%)" offset="0.0078125"/><stop stop-opacity="1" stop-color="rgb(46.347046%, 77.16217%, 100%)" offset="0.015625"/><stop stop-opacity="1" stop-color="rgb(46.705627%, 77.079773%, 100%)" offset="0.0234375"/><stop stop-opacity="1" stop-color="rgb(47.064209%, 76.997375%, 100%)" offset="0.03125"/><stop stop-opacity="1" stop-color="rgb(47.422791%, 76.914978%, 100%)" offset="0.0390625"/><stop stop-opacity="1" stop-color="rgb(47.779846%, 76.832581%, 100%)" offset="0.046875"/><stop stop-opacity="1" stop-color="rgb(48.138428%, 76.750183%, 100%)" offset="0.0546875"/><stop stop-opacity="1" stop-color="rgb(48.497009%, 76.667786%, 100%)" offset="0.0625"/><stop stop-opacity="1" stop-color="rgb(48.855591%, 76.586914%, 100%)" offset="0.0703125"/><stop stop-opacity="1" stop-color="rgb(49.214172%, 76.504517%, 100%)" offset="0.078125"/><stop stop-opacity="1" stop-color="rgb(49.572754%, 76.422119%, 100%)" offset="0.0859375"/><stop stop-opacity="1" stop-color="rgb(49.931335%, 76.339722%, 100%)" offset="0.09375"/><stop stop-opacity="1" stop-color="rgb(50.289917%, 76.257324%, 100%)" offset="0.101562"/><stop stop-opacity="1" stop-color="rgb(50.646973%, 76.174927%, 100%)" offset="0.109375"/><stop stop-opacity="1" stop-color="rgb(51.005554%, 76.092529%, 100%)" offset="0.117187"/><stop stop-opacity="1" stop-color="rgb(51.364136%, 76.010132%, 100%)" offset="0.125"/><stop stop-opacity="1" stop-color="rgb(51.722717%, 75.927734%, 100%)" offset="0.132812"/><stop stop-opacity="1" stop-color="rgb(52.081299%, 75.845337%, 100%)" offset="0.140625"/><stop stop-opacity="1" stop-color="rgb(52.43988%, 75.764465%, 100%)" offset="0.148437"/><stop stop-opacity="1" stop-color="rgb(52.798462%, 75.682068%, 100%)" offset="0.15625"/><stop stop-opacity="1" stop-color="rgb(53.157043%, 75.59967%, 100%)" offset="0.164062"/><stop stop-opacity="1" stop-color="rgb(53.515625%, 75.517273%, 100%)" offset="0.171875"/><stop stop-opacity="1" stop-color="rgb(53.872681%, 75.434875%, 100%)" offset="0.179687"/><stop stop-opacity="1" stop-color="rgb(54.231262%, 75.352478%, 100%)" offset="0.1875"/><stop stop-opacity="1" stop-color="rgb(54.589844%, 75.270081%, 100%)" offset="0.195312"/><stop stop-opacity="1" stop-color="rgb(54.948425%, 75.187683%, 100%)" offset="0.203125"/><stop stop-opacity="1" stop-color="rgb(55.307007%, 75.105286%, 100%)" offset="0.210937"/><stop stop-opacity="1" stop-color="rgb(55.665588%, 75.022888%, 100%)" offset="0.21875"/><stop stop-opacity="1" stop-color="rgb(56.02417%, 74.942017%, 100%)" offset="0.226562"/><stop stop-opacity="1" stop-color="rgb(56.382751%, 74.859619%, 100%)" offset="0.234375"/><stop stop-opacity="1" stop-color="rgb(56.739807%, 74.777222%, 100%)" offset="0.242187"/><stop stop-opacity="1" stop-color="rgb(57.098389%, 74.694824%, 100%)" offset="0.25"/><stop stop-opacity="1" stop-color="rgb(57.45697%, 74.612427%, 100%)" offset="0.257812"/><stop stop-opacity="1" stop-color="rgb(57.815552%, 74.530029%, 100%)" offset="0.265625"/><stop stop-opacity="1" stop-color="rgb(58.174133%, 74.447632%, 100%)" offset="0.273438"/><stop stop-opacity="1" stop-color="rgb(58.532715%, 74.365234%, 100%)" offset="0.28125"/><stop stop-opacity="1" stop-color="rgb(58.891296%, 74.282837%, 100%)" offset="0.289062"/><stop stop-opacity="1" stop-color="rgb(59.249878%, 74.201965%, 100%)" offset="0.296875"/><stop stop-opacity="1" stop-color="rgb(59.606934%, 74.119568%, 100%)" offset="0.304687"/><stop stop-opacity="1" stop-color="rgb(59.965515%, 74.03717%, 100%)" offset="0.3125"/><stop stop-opacity="1" stop-color="rgb(60.324097%, 73.954773%, 100%)" offset="0.320312"/><stop stop-opacity="1" stop-color="rgb(60.682678%, 73.872375%, 100%)" offset="0.328125"/><stop stop-opacity="1" stop-color="rgb(61.04126%, 73.789978%, 100%)" offset="0.335937"/><stop stop-opacity="1" stop-color="rgb(61.399841%, 73.707581%, 100%)" offset="0.34375"/><stop stop-opacity="1" stop-color="rgb(61.758423%, 73.625183%, 100%)" offset="0.351562"/><stop stop-opacity="1" stop-color="rgb(62.117004%, 73.542786%, 100%)" offset="0.359375"/><stop stop-opacity="1" stop-color="rgb(62.47406%, 73.460388%, 100%)" offset="0.367187"/><stop stop-opacity="1" stop-color="rgb(62.832642%, 73.379517%, 100%)" offset="0.375"/><stop stop-opacity="1" stop-color="rgb(63.191223%, 73.297119%, 100%)" offset="0.382812"/><stop stop-opacity="1" stop-color="rgb(63.549805%, 73.214722%, 100%)" offset="0.390625"/><stop stop-opacity="1" stop-color="rgb(63.908386%, 73.132324%, 100%)" offset="0.398437"/><stop stop-opacity="1" stop-color="rgb(64.266968%, 73.049927%, 100%)" offset="0.40625"/><stop stop-opacity="1" stop-color="rgb(64.625549%, 72.967529%, 100%)" offset="0.414062"/><stop stop-opacity="1" stop-color="rgb(64.984131%, 72.885132%, 100%)" offset="0.421875"/><stop stop-opacity="1" stop-color="rgb(65.341187%, 72.802734%, 100%)" offset="0.429687"/><stop stop-opacity="1" stop-color="rgb(65.699768%, 72.720337%, 100%)" offset="0.4375"/><stop stop-opacity="1" stop-color="rgb(66.05835%, 72.637939%, 100%)" offset="0.445312"/><stop stop-opacity="1" stop-color="rgb(66.416931%, 72.557068%, 100%)" offset="0.453125"/><stop stop-opacity="1" stop-color="rgb(66.775513%, 72.47467%, 100%)" offset="0.460937"/><stop stop-opacity="1" stop-color="rgb(67.134094%, 72.392273%, 100%)" offset="0.46875"/><stop stop-opacity="1" stop-color="rgb(67.492676%, 72.309875%, 100%)" offset="0.476562"/><stop stop-opacity="1" stop-color="rgb(67.851257%, 72.227478%, 100%)" offset="0.484375"/><stop stop-opacity="1" stop-color="rgb(68.208313%, 72.145081%, 100%)" offset="0.492187"/><stop stop-opacity="1" stop-color="rgb(68.566895%, 72.062683%, 100%)" offset="0.5"/><stop stop-opacity="1" stop-color="rgb(68.925476%, 71.980286%, 100%)" offset="0.507812"/><stop stop-opacity="1" stop-color="rgb(69.284058%, 71.897888%, 100%)" offset="0.515625"/><stop stop-opacity="1" stop-color="rgb(69.642639%, 71.815491%, 100%)" offset="0.523438"/><stop stop-opacity="1" stop-color="rgb(70.001221%, 71.734619%, 100%)" offset="0.53125"/><stop stop-opacity="1" stop-color="rgb(70.359802%, 71.652222%, 100%)" offset="0.539063"/><stop stop-opacity="1" stop-color="rgb(70.718384%, 71.569824%, 100%)" offset="0.546875"/><stop stop-opacity="1" stop-color="rgb(71.075439%, 71.487427%, 100%)" offset="0.554688"/><stop stop-opacity="1" stop-color="rgb(71.434021%, 71.405029%, 100%)" offset="0.5625"/><stop stop-opacity="1" stop-color="rgb(71.792603%, 71.322632%, 100%)" offset="0.570313"/><stop stop-opacity="1" stop-color="rgb(72.151184%, 71.240234%, 100%)" offset="0.578125"/><stop stop-opacity="1" stop-color="rgb(72.509766%, 71.157837%, 100%)" offset="0.585938"/><stop stop-opacity="1" stop-color="rgb(72.868347%, 71.075439%, 100%)" offset="0.59375"/><stop stop-opacity="1" stop-color="rgb(73.226929%, 70.993042%, 100%)" offset="0.601562"/><stop stop-opacity="1" stop-color="rgb(73.58551%, 70.91217%, 100%)" offset="0.609375"/><stop stop-opacity="1" stop-color="rgb(73.942566%, 70.829773%, 100%)" offset="0.617188"/><stop stop-opacity="1" stop-color="rgb(74.301147%, 70.747375%, 100%)" offset="0.625"/><stop stop-opacity="1" stop-color="rgb(74.659729%, 70.664978%, 100%)" offset="0.632812"/><stop stop-opacity="1" stop-color="rgb(75.018311%, 70.582581%, 100%)" offset="0.640625"/><stop stop-opacity="1" stop-color="rgb(75.376892%, 70.500183%, 100%)" offset="0.648438"/><stop stop-opacity="1" stop-color="rgb(75.735474%, 70.417786%, 100%)" offset="0.65625"/><stop stop-opacity="1" stop-color="rgb(76.094055%, 70.335388%, 100%)" offset="0.664062"/><stop stop-opacity="1" stop-color="rgb(76.452637%, 70.252991%, 100%)" offset="0.671875"/><stop stop-opacity="1" stop-color="rgb(76.809692%, 70.172119%, 100%)" offset="0.679688"/><stop stop-opacity="1" stop-color="rgb(77.168274%, 70.089722%, 100%)" offset="0.6875"/><stop stop-opacity="1" stop-color="rgb(77.526855%, 70.007324%, 100%)" offset="0.695312"/><stop stop-opacity="1" stop-color="rgb(77.885437%, 69.924927%, 100%)" offset="0.703125"/><stop stop-opacity="1" stop-color="rgb(78.244019%, 69.842529%, 100%)" offset="0.710938"/><stop stop-opacity="1" stop-color="rgb(78.6026%, 69.760132%, 100%)" offset="0.71875"/><stop stop-opacity="1" stop-color="rgb(78.961182%, 69.677734%, 100%)" offset="0.726562"/><stop stop-opacity="1" stop-color="rgb(79.319763%, 69.595337%, 100%)" offset="0.734375"/><stop stop-opacity="1" stop-color="rgb(79.678345%, 69.512939%, 100%)" offset="0.742188"/><stop stop-opacity="1" stop-color="rgb(80.0354%, 69.430542%, 100%)" offset="0.75"/><stop stop-opacity="1" stop-color="rgb(80.393982%, 69.34967%, 100%)" offset="0.757812"/><stop stop-opacity="1" stop-color="rgb(80.752563%, 69.267273%, 100%)" offset="0.765625"/><stop stop-opacity="1" stop-color="rgb(81.111145%, 69.184875%, 100%)" offset="0.773437"/><stop stop-opacity="1" stop-color="rgb(81.469727%, 69.102478%, 100%)" offset="0.78125"/><stop stop-opacity="1" stop-color="rgb(81.828308%, 69.020081%, 100%)" offset="0.789062"/><stop stop-opacity="1" stop-color="rgb(82.18689%, 68.937683%, 100%)" offset="0.796875"/><stop stop-opacity="1" stop-color="rgb(82.545471%, 68.855286%, 100%)" offset="0.804687"/><stop stop-opacity="1" stop-color="rgb(82.902527%, 68.772888%, 100%)" offset="0.8125"/><stop stop-opacity="1" stop-color="rgb(83.261108%, 68.690491%, 100%)" offset="0.820312"/><stop stop-opacity="1" stop-color="rgb(83.61969%, 68.608093%, 100%)" offset="0.828125"/><stop stop-opacity="1" stop-color="rgb(83.978271%, 68.527222%, 100%)" offset="0.835937"/><stop stop-opacity="1" stop-color="rgb(84.336853%, 68.444824%, 100%)" offset="0.84375"/><stop stop-opacity="1" stop-color="rgb(84.695435%, 68.362427%, 100%)" offset="0.851562"/><stop stop-opacity="1" stop-color="rgb(85.054016%, 68.280029%, 100%)" offset="0.859375"/><stop stop-opacity="1" stop-color="rgb(85.412598%, 68.197632%, 100%)" offset="0.867187"/><stop stop-opacity="1" stop-color="rgb(85.769653%, 68.115234%, 100%)" offset="0.875"/><stop stop-opacity="1" stop-color="rgb(86.128235%, 68.032837%, 100%)" offset="0.882813"/><stop stop-opacity="1" stop-color="rgb(86.486816%, 67.950439%, 100%)" offset="0.890625"/><stop stop-opacity="1" stop-color="rgb(86.845398%, 67.868042%, 100%)" offset="0.898438"/><stop stop-opacity="1" stop-color="rgb(87.203979%, 67.785645%, 100%)" offset="0.90625"/><stop stop-opacity="1" stop-color="rgb(87.562561%, 67.704773%, 100%)" offset="0.914063"/><stop stop-opacity="1" stop-color="rgb(87.921143%, 67.622375%, 100%)" offset="0.921875"/><stop stop-opacity="1" stop-color="rgb(88.279724%, 67.539978%, 100%)" offset="0.929688"/><stop stop-opacity="1" stop-color="rgb(88.63678%, 67.457581%, 100%)" offset="0.9375"/><stop stop-opacity="1" stop-color="rgb(88.995361%, 67.375183%, 100%)" offset="0.945312"/><stop stop-opacity="1" stop-color="rgb(89.353943%, 67.292786%, 100%)" offset="0.953125"/><stop stop-opacity="1" stop-color="rgb(89.712524%, 67.210388%, 100%)" offset="0.960938"/><stop stop-opacity="1" stop-color="rgb(90.045166%, 67.134094%, 100%)" offset="0.96875"/><stop stop-opacity="1" stop-color="rgb(90.19928%, 67.098999%, 100%)" offset="1"/></linearGradient><clipPath id="id4"><path d="M 13 20.152344 L 55 20.152344 L 55 65 L 13 65 Z M 13 20.152344 " clip-rule="nonzero"/></clipPath><clipPath id="id5"><path d="M 14.40625 53.921875 L 32.652344 64.4375 C 33.023438 64.648438 33.4375 64.757812 33.855469 64.757812 C 34.269531 64.757812 34.6875 64.648438 35.058594 64.4375 L 53.304688 53.917969 C 53.878906 53.585938 54.296875 53.027344 54.457031 52.378906 C 54.617188 51.734375 54.503906 51.039062 54.148438 50.480469 L 35.90625 21.5625 C 35.457031 20.851562 34.691406 20.429688 33.855469 20.429688 C 33.019531 20.429688 32.257812 20.851562 31.808594 21.5625 L 13.5625 50.480469 C 13.207031 51.042969 13.09375 51.734375 13.253906 52.382812 C 13.410156 53.03125 13.832031 53.589844 14.40625 53.921875 Z M 16.371094 52.234375 L 32.640625 45.671875 L 32.640625 61.609375 Z M 35.070312 45.671875 L 51.339844 52.234375 L 35.070312 61.613281 Z M 50.5 49.257812 L 35.070312 43.035156 L 35.070312 24.800781 Z M 32.640625 24.800781 L 32.640625 43.035156 L 17.210938 49.257812 Z M 32.640625 24.800781 " clip-rule="nonzero"/></clipPath><linearGradient x1="32" gradientTransform="matrix(1.214064, 0, 0, 1.22453, -4.993837, 14.473848)" y1="4.863002" x2="32" gradientUnits="userSpaceOnUse" y2="41.063006" id="id6"><stop stop-opacity="1" stop-color="rgb(10.910034%, 42.393494%, 100%)" offset="0"/><stop stop-opacity="1" stop-color="rgb(11.094666%, 42.312622%, 100%)" offset="0.0078125"/><stop stop-opacity="1" stop-color="rgb(11.463928%, 42.153931%, 100%)" offset="0.015625"/><stop stop-opacity="1" stop-color="rgb(11.833191%, 41.995239%, 100%)" offset="0.0234375"/><stop stop-opacity="1" stop-color="rgb(12.202454%, 41.835022%, 100%)" offset="0.03125"/><stop stop-opacity="1" stop-color="rgb(12.571716%, 41.676331%, 100%)" offset="0.0390625"/><stop stop-opacity="1" stop-color="rgb(12.940979%, 41.517639%, 100%)" offset="0.046875"/><stop stop-opacity="1" stop-color="rgb(13.310242%, 41.357422%, 100%)" offset="0.0546875"/><stop stop-opacity="1" stop-color="rgb(13.679504%, 41.19873%, 100%)" offset="0.0625"/><stop stop-opacity="1" stop-color="rgb(14.048767%, 41.038513%, 100%)" offset="0.0703125"/><stop stop-opacity="1" stop-color="rgb(14.41803%, 40.879822%, 100%)" offset="0.078125"/><stop stop-opacity="1" stop-color="rgb(14.788818%, 40.72113%, 100%)" offset="0.0859375"/><stop stop-opacity="1" stop-color="rgb(15.158081%, 40.560913%, 100%)" offset="0.09375"/><stop stop-opacity="1" stop-color="rgb(15.527344%, 40.402222%, 100%)" offset="0.101562"/><stop stop-opacity="1" stop-color="rgb(15.896606%, 40.24353%, 100%)" offset="0.109375"/><stop stop-opacity="1" stop-color="rgb(16.265869%, 40.083313%, 100%)" offset="0.117188"/><stop stop-opacity="1" stop-color="rgb(16.635132%, 39.924622%, 100%)" offset="0.125"/><stop stop-opacity="1" stop-color="rgb(17.004395%, 39.76593%, 100%)" offset="0.132812"/><stop stop-opacity="1" stop-color="rgb(17.373657%, 39.605713%, 100%)" offset="0.140625"/><stop stop-opacity="1" stop-color="rgb(17.74292%, 39.447021%, 100%)" offset="0.148438"/><stop stop-opacity="1" stop-color="rgb(18.112183%, 39.28833%, 100%)" offset="0.15625"/><stop stop-opacity="1" stop-color="rgb(18.481445%, 39.128113%, 100%)" offset="0.164062"/><stop stop-opacity="1" stop-color="rgb(18.850708%, 38.969421%, 100%)" offset="0.171875"/><stop stop-opacity="1" stop-color="rgb(19.219971%, 38.809204%, 100%)" offset="0.179687"/><stop stop-opacity="1" stop-color="rgb(19.590759%, 38.650513%, 100%)" offset="0.1875"/><stop stop-opacity="1" stop-color="rgb(19.960022%, 38.491821%, 100%)" offset="0.195312"/><stop stop-opacity="1" stop-color="rgb(20.329285%, 38.331604%, 100%)" offset="0.203125"/><stop stop-opacity="1" stop-color="rgb(20.698547%, 38.172913%, 100%)" offset="0.210937"/><stop stop-opacity="1" stop-color="rgb(21.06781%, 38.014221%, 100%)" offset="0.21875"/><stop stop-opacity="1" stop-color="rgb(21.437073%, 37.854004%, 100%)" offset="0.226562"/><stop stop-opacity="1" stop-color="rgb(21.806335%, 37.695312%, 100%)" offset="0.234375"/><stop stop-opacity="1" stop-color="rgb(22.175598%, 37.536621%, 100%)" offset="0.242187"/><stop stop-opacity="1" stop-color="rgb(22.544861%, 37.376404%, 100%)" offset="0.25"/><stop stop-opacity="1" stop-color="rgb(22.914124%, 37.217712%, 100%)" offset="0.257812"/><stop stop-opacity="1" stop-color="rgb(23.283386%, 37.059021%, 100%)" offset="0.265625"/><stop stop-opacity="1" stop-color="rgb(23.652649%, 36.898804%, 100%)" offset="0.273437"/><stop stop-opacity="1" stop-color="rgb(24.021912%, 36.740112%, 100%)" offset="0.28125"/><stop stop-opacity="1" stop-color="rgb(24.3927%, 36.579895%, 100%)" offset="0.289062"/><stop stop-opacity="1" stop-color="rgb(24.761963%, 36.421204%, 100%)" offset="0.296875"/><stop stop-opacity="1" stop-color="rgb(25.131226%, 36.262512%, 100%)" offset="0.304687"/><stop stop-opacity="1" stop-color="rgb(25.500488%, 36.102295%, 100%)" offset="0.3125"/><stop stop-opacity="1" stop-color="rgb(25.869751%, 35.943604%, 100%)" offset="0.320312"/><stop stop-opacity="1" stop-color="rgb(26.239014%, 35.784912%, 100%)" offset="0.328125"/><stop stop-opacity="1" stop-color="rgb(26.608276%, 35.624695%, 100%)" offset="0.335937"/><stop stop-opacity="1" stop-color="rgb(26.977539%, 35.466003%, 100%)" offset="0.34375"/><stop stop-opacity="1" stop-color="rgb(27.346802%, 35.307312%, 100%)" offset="0.351562"/><stop stop-opacity="1" stop-color="rgb(27.716064%, 35.147095%, 100%)" offset="0.359375"/><stop stop-opacity="1" stop-color="rgb(28.085327%, 34.988403%, 100%)" offset="0.367188"/><stop stop-opacity="1" stop-color="rgb(28.45459%, 34.829712%, 100%)" offset="0.375"/><stop stop-opacity="1" stop-color="rgb(28.823853%, 34.669495%, 100%)" offset="0.382812"/><stop stop-opacity="1" stop-color="rgb(29.194641%, 34.510803%, 100%)" offset="0.390625"/><stop stop-opacity="1" stop-color="rgb(29.563904%, 34.352112%, 100%)" offset="0.398437"/><stop stop-opacity="1" stop-color="rgb(29.933167%, 34.191895%, 100%)" offset="0.40625"/><stop stop-opacity="1" stop-color="rgb(30.302429%, 34.033203%, 100%)" offset="0.414062"/><stop stop-opacity="1" stop-color="rgb(30.671692%, 33.872986%, 100%)" offset="0.421875"/><stop stop-opacity="1" stop-color="rgb(31.040955%, 33.714294%, 100%)" offset="0.429688"/><stop stop-opacity="1" stop-color="rgb(31.410217%, 33.555603%, 100%)" offset="0.4375"/><stop stop-opacity="1" stop-color="rgb(31.77948%, 33.395386%, 100%)" offset="0.445312"/><stop stop-opacity="1" stop-color="rgb(32.148743%, 33.236694%, 100%)" offset="0.453125"/><stop stop-opacity="1" stop-color="rgb(32.518005%, 33.078003%, 100%)" offset="0.460937"/><stop stop-opacity="1" stop-color="rgb(32.887268%, 32.917786%, 100%)" offset="0.46875"/><stop stop-opacity="1" stop-color="rgb(33.256531%, 32.759094%, 100%)" offset="0.476562"/><stop stop-opacity="1" stop-color="rgb(33.625793%, 32.600403%, 100%)" offset="0.484375"/><stop stop-opacity="1" stop-color="rgb(33.996582%, 32.440186%, 100%)" offset="0.492188"/><stop stop-opacity="1" stop-color="rgb(34.365845%, 32.281494%, 100%)" offset="0.5"/><stop stop-opacity="1" stop-color="rgb(34.735107%, 32.122803%, 100%)" offset="0.507812"/><stop stop-opacity="1" stop-color="rgb(35.10437%, 31.962585%, 100%)" offset="0.515625"/><stop stop-opacity="1" stop-color="rgb(35.473633%, 31.803894%, 100%)" offset="0.523437"/><stop stop-opacity="1" stop-color="rgb(35.842896%, 31.643677%, 100%)" offset="0.53125"/><stop stop-opacity="1" stop-color="rgb(36.212158%, 31.484985%, 100%)" offset="0.539062"/><stop stop-opacity="1" stop-color="rgb(36.581421%, 31.326294%, 100%)" offset="0.546875"/><stop stop-opacity="1" stop-color="rgb(36.950684%, 31.166077%, 100%)" offset="0.554688"/><stop stop-opacity="1" stop-color="rgb(37.319946%, 31.007385%, 100%)" offset="0.5625"/><stop stop-opacity="1" stop-color="rgb(37.689209%, 30.848694%, 100%)" offset="0.570312"/><stop stop-opacity="1" stop-color="rgb(38.058472%, 30.688477%, 100%)" offset="0.578125"/><stop stop-opacity="1" stop-color="rgb(38.427734%, 30.529785%, 100%)" offset="0.585938"/><stop stop-opacity="1" stop-color="rgb(38.796997%, 30.371094%, 100%)" offset="0.59375"/><stop stop-opacity="1" stop-color="rgb(39.167786%, 30.210876%, 100%)" offset="0.601562"/><stop stop-opacity="1" stop-color="rgb(39.537048%, 30.052185%, 100%)" offset="0.609375"/><stop stop-opacity="1" stop-color="rgb(39.906311%, 29.893494%, 100%)" offset="0.617188"/><stop stop-opacity="1" stop-color="rgb(40.275574%, 29.733276%, 100%)" offset="0.625"/><stop stop-opacity="1" stop-color="rgb(40.644836%, 29.574585%, 100%)" offset="0.632812"/><stop stop-opacity="1" stop-color="rgb(41.014099%, 29.415894%, 100%)" offset="0.640625"/><stop stop-opacity="1" stop-color="rgb(41.383362%, 29.255676%, 100%)" offset="0.648438"/><stop stop-opacity="1" stop-color="rgb(41.752625%, 29.096985%, 100%)" offset="0.65625"/><stop stop-opacity="1" stop-color="rgb(42.121887%, 28.936768%, 100%)" offset="0.664062"/><stop stop-opacity="1" stop-color="rgb(42.49115%, 28.778076%, 100%)" offset="0.671875"/><stop stop-opacity="1" stop-color="rgb(42.860413%, 28.619385%, 100%)" offset="0.679688"/><stop stop-opacity="1" stop-color="rgb(43.229675%, 28.459167%, 100%)" offset="0.6875"/><stop stop-opacity="1" stop-color="rgb(43.598938%, 28.300476%, 100%)" offset="0.695312"/><stop stop-opacity="1" stop-color="rgb(43.969727%, 28.141785%, 100%)" offset="0.703125"/><stop stop-opacity="1" stop-color="rgb(44.338989%, 27.981567%, 100%)" offset="0.710938"/><stop stop-opacity="1" stop-color="rgb(44.708252%, 27.822876%, 100%)" offset="0.71875"/><stop stop-opacity="1" stop-color="rgb(45.077515%, 27.664185%, 100%)" offset="0.726563"/><stop stop-opacity="1" stop-color="rgb(45.446777%, 27.503967%, 100%)" offset="0.734375"/><stop stop-opacity="1" stop-color="rgb(45.81604%, 27.345276%, 100%)" offset="0.742188"/><stop stop-opacity="1" stop-color="rgb(46.185303%, 27.186584%, 100%)" offset="0.75"/><stop stop-opacity="1" stop-color="rgb(46.554565%, 27.026367%, 100%)" offset="0.757812"/><stop stop-opacity="1" stop-color="rgb(46.923828%, 26.867676%, 100%)" offset="0.765625"/><stop stop-opacity="1" stop-color="rgb(47.293091%, 26.707458%, 100%)" offset="0.773437"/><stop stop-opacity="1" stop-color="rgb(47.662354%, 26.548767%, 100%)" offset="0.78125"/><stop stop-opacity="1" stop-color="rgb(48.031616%, 26.390076%, 100%)" offset="0.789062"/><stop stop-opacity="1" stop-color="rgb(48.400879%, 26.229858%, 100%)" offset="0.796875"/><stop stop-opacity="1" stop-color="rgb(48.771667%, 26.071167%, 100%)" offset="0.804688"/><stop stop-opacity="1" stop-color="rgb(49.14093%, 25.912476%, 100%)" offset="0.8125"/><stop stop-opacity="1" stop-color="rgb(49.510193%, 25.752258%, 100%)" offset="0.820312"/><stop stop-opacity="1" stop-color="rgb(49.879456%, 25.593567%, 100%)" offset="0.828125"/><stop stop-opacity="1" stop-color="rgb(50.248718%, 25.434875%, 100%)" offset="0.835938"/><stop stop-opacity="1" stop-color="rgb(50.617981%, 25.274658%, 100%)" offset="0.84375"/><stop stop-opacity="1" stop-color="rgb(50.987244%, 25.115967%, 100%)" offset="0.851563"/><stop stop-opacity="1" stop-color="rgb(51.356506%, 24.957275%, 100%)" offset="0.859375"/><stop stop-opacity="1" stop-color="rgb(51.725769%, 24.797058%, 100%)" offset="0.867188"/><stop stop-opacity="1" stop-color="rgb(52.095032%, 24.638367%, 100%)" offset="0.875"/><stop stop-opacity="1" stop-color="rgb(52.464294%, 24.479675%, 100%)" offset="0.882812"/><stop stop-opacity="1" stop-color="rgb(52.833557%, 24.319458%, 100%)" offset="0.890625"/><stop stop-opacity="1" stop-color="rgb(53.20282%, 24.160767%, 100%)" offset="0.898437"/><stop stop-opacity="1" stop-color="rgb(53.573608%, 24.000549%, 100%)" offset="0.90625"/><stop stop-opacity="1" stop-color="rgb(53.942871%, 23.841858%, 100%)" offset="0.914062"/><stop stop-opacity="1" stop-color="rgb(54.312134%, 23.683167%, 100%)" offset="0.921875"/><stop stop-opacity="1" stop-color="rgb(54.681396%, 23.522949%, 100%)" offset="0.929688"/><stop stop-opacity="1" stop-color="rgb(55.050659%, 23.364258%, 100%)" offset="0.9375"/><stop stop-opacity="1" stop-color="rgb(55.419922%, 23.205566%, 100%)" offset="0.945312"/><stop stop-opacity="1" stop-color="rgb(55.789185%, 23.045349%, 100%)" offset="0.953125"/><stop stop-opacity="1" stop-color="rgb(56.158447%, 22.886658%, 100%)" offset="0.960938"/><stop stop-opacity="1" stop-color="rgb(56.52771%, 22.727966%, 100%)" offset="0.96875"/><stop stop-opacity="1" stop-color="rgb(56.896973%, 22.567749%, 100%)" offset="0.976563"/><stop stop-opacity="1" stop-color="rgb(57.266235%, 22.409058%, 100%)" offset="0.984375"/><stop stop-opacity="1" stop-color="rgb(57.635498%, 22.250366%, 100%)" offset="0.992188"/><stop stop-opacity="1" stop-color="rgb(58.004761%, 22.090149%, 100%)" offset="1"/></linearGradient><clipPath id="id7"><path d="M 11.394531 56 L 56.316406 56 L 56.316406 87.53125 L 11.394531 87.53125 Z M 11.394531 56 " clip-rule="nonzero"/></clipPath><clipPath id="id8"><path d="M 55.925781 57.367188 C 55.539062 56.933594 54.898438 56.835938 54.402344 57.132812 L 33.855469 69.484375 L 13.3125 57.132812 C 12.8125 56.832031 12.175781 56.929688 11.785156 57.367188 C 11.398438 57.800781 11.371094 58.449219 11.714844 58.917969 L 31.902344 86.109375 C 32.363281 86.742188 33.078125 87.105469 33.855469 87.105469 C 34.636719 87.105469 35.347656 86.742188 35.804688 86.117188 L 55.996094 58.917969 C 56.34375 58.449219 56.3125 57.800781 55.925781 57.367188 Z M 17.339844 62.40625 L 32.640625 71.605469 L 32.640625 83.019531 Z M 35.070312 83.007812 L 35.070312 71.605469 L 50.371094 62.40625 Z M 35.070312 83.007812 " clip-rule="nonzero"/></clipPath><linearGradient x1="32" gradientTransform="matrix(1.214064, 0, 0, 1.22453, -4.993837, 14.473848)" y1="34.592005" x2="32" gradientUnits="userSpaceOnUse" y2="59.314002" id="id9"><stop stop-opacity="1" stop-color="rgb(49.739075%, 25.654602%, 100%)" offset="0"/><stop stop-opacity="1" stop-color="rgb(49.864197%, 25.59967%, 100%)" offset="0.0078125"/><stop stop-opacity="1" stop-color="rgb(50.115967%, 25.491333%, 100%)" offset="0.015625"/><stop stop-opacity="1" stop-color="rgb(50.369263%, 25.38147%, 100%)" offset="0.0234375"/><stop stop-opacity="1" stop-color="rgb(50.621033%, 25.273132%, 100%)" offset="0.03125"/><stop stop-opacity="1" stop-color="rgb(50.872803%, 25.164795%, 100%)" offset="0.0390625"/><stop stop-opacity="1" stop-color="rgb(51.126099%, 25.056458%, 100%)" offset="0.046875"/><stop stop-opacity="1" stop-color="rgb(51.377869%, 24.946594%, 100%)" offset="0.0546875"/><stop stop-opacity="1" stop-color="rgb(51.629639%, 24.838257%, 100%)" offset="0.0625"/><stop stop-opacity="1" stop-color="rgb(51.881409%, 24.729919%, 100%)" offset="0.0703125"/><stop stop-opacity="1" stop-color="rgb(52.134705%, 24.621582%, 100%)" offset="0.078125"/><stop stop-opacity="1" stop-color="rgb(52.386475%, 24.511719%, 100%)" offset="0.0859375"/><stop stop-opacity="1" stop-color="rgb(52.638245%, 24.403381%, 100%)" offset="0.09375"/><stop stop-opacity="1" stop-color="rgb(52.891541%, 24.295044%, 100%)" offset="0.101563"/><stop stop-opacity="1" stop-color="rgb(53.143311%, 24.185181%, 100%)" offset="0.109375"/><stop stop-opacity="1" stop-color="rgb(53.395081%, 24.076843%, 100%)" offset="0.117188"/><stop stop-opacity="1" stop-color="rgb(53.648376%, 23.968506%, 100%)" offset="0.125"/><stop stop-opacity="1" stop-color="rgb(53.900146%, 23.860168%, 100%)" offset="0.132813"/><stop stop-opacity="1" stop-color="rgb(54.151917%, 23.750305%, 100%)" offset="0.140625"/><stop stop-opacity="1" stop-color="rgb(54.405212%, 23.641968%, 100%)" offset="0.148438"/><stop stop-opacity="1" stop-color="rgb(54.656982%, 23.53363%, 100%)" offset="0.15625"/><stop stop-opacity="1" stop-color="rgb(54.908752%, 23.425293%, 100%)" offset="0.164063"/><stop stop-opacity="1" stop-color="rgb(55.162048%, 23.31543%, 100%)" offset="0.171875"/><stop stop-opacity="1" stop-color="rgb(55.413818%, 23.207092%, 100%)" offset="0.179688"/><stop stop-opacity="1" stop-color="rgb(55.665588%, 23.098755%, 100%)" offset="0.1875"/><stop stop-opacity="1" stop-color="rgb(55.918884%, 22.990417%, 100%)" offset="0.195313"/><stop stop-opacity="1" stop-color="rgb(56.170654%, 22.880554%, 100%)" offset="0.203125"/><stop stop-opacity="1" stop-color="rgb(56.422424%, 22.772217%, 100%)" offset="0.210938"/><stop stop-opacity="1" stop-color="rgb(56.67572%, 22.663879%, 100%)" offset="0.21875"/><stop stop-opacity="1" stop-color="rgb(56.92749%, 22.554016%, 100%)" offset="0.226563"/><stop stop-opacity="1" stop-color="rgb(57.17926%, 22.445679%, 100%)" offset="0.234375"/><stop stop-opacity="1" stop-color="rgb(57.432556%, 22.337341%, 100%)" offset="0.242188"/><stop stop-opacity="1" stop-color="rgb(57.684326%, 22.229004%, 100%)" offset="0.25"/><stop stop-opacity="1" stop-color="rgb(57.936096%, 22.119141%, 100%)" offset="0.257813"/><stop stop-opacity="1" stop-color="rgb(58.187866%, 22.010803%, 100%)" offset="0.265625"/><stop stop-opacity="1" stop-color="rgb(58.441162%, 21.902466%, 100%)" offset="0.273438"/><stop stop-opacity="1" stop-color="rgb(58.692932%, 21.794128%, 100%)" offset="0.28125"/><stop stop-opacity="1" stop-color="rgb(58.944702%, 21.684265%, 100%)" offset="0.289063"/><stop stop-opacity="1" stop-color="rgb(59.197998%, 21.575928%, 100%)" offset="0.296875"/><stop stop-opacity="1" stop-color="rgb(59.449768%, 21.46759%, 100%)" offset="0.304688"/><stop stop-opacity="1" stop-color="rgb(59.701538%, 21.359253%, 100%)" offset="0.3125"/><stop stop-opacity="1" stop-color="rgb(59.954834%, 21.24939%, 100%)" offset="0.320313"/><stop stop-opacity="1" stop-color="rgb(60.206604%, 21.141052%, 100%)" offset="0.328125"/><stop stop-opacity="1" stop-color="rgb(60.458374%, 21.032715%, 100%)" offset="0.335938"/><stop stop-opacity="1" stop-color="rgb(60.71167%, 20.922852%, 100%)" offset="0.34375"/><stop stop-opacity="1" stop-color="rgb(60.96344%, 20.814514%, 100%)" offset="0.351563"/><stop stop-opacity="1" stop-color="rgb(61.21521%, 20.706177%, 100%)" offset="0.359375"/><stop stop-opacity="1" stop-color="rgb(61.468506%, 20.597839%, 100%)" offset="0.367188"/><stop stop-opacity="1" stop-color="rgb(61.720276%, 20.487976%, 100%)" offset="0.375"/><stop stop-opacity="1" stop-color="rgb(61.972046%, 20.379639%, 100%)" offset="0.382813"/><stop stop-opacity="1" stop-color="rgb(62.225342%, 20.271301%, 100%)" offset="0.390625"/><stop stop-opacity="1" stop-color="rgb(62.477112%, 20.162964%, 100%)" offset="0.398437"/><stop stop-opacity="1" stop-color="rgb(62.728882%, 20.053101%, 100%)" offset="0.40625"/><stop stop-opacity="1" stop-color="rgb(62.982178%, 19.944763%, 100%)" offset="0.414063"/><stop stop-opacity="1" stop-color="rgb(63.233948%, 19.836426%, 100%)" offset="0.421875"/><stop stop-opacity="1" stop-color="rgb(63.485718%, 19.726562%, 100%)" offset="0.429688"/><stop stop-opacity="1" stop-color="rgb(63.739014%, 19.618225%, 100%)" offset="0.4375"/><stop stop-opacity="1" stop-color="rgb(63.990784%, 19.509888%, 100%)" offset="0.445313"/><stop stop-opacity="1" stop-color="rgb(64.242554%, 19.40155%, 100%)" offset="0.453125"/><stop stop-opacity="1" stop-color="rgb(64.494324%, 19.291687%, 100%)" offset="0.460937"/><stop stop-opacity="1" stop-color="rgb(64.74762%, 19.18335%, 100%)" offset="0.46875"/><stop stop-opacity="1" stop-color="rgb(64.99939%, 19.075012%, 100%)" offset="0.476563"/><stop stop-opacity="1" stop-color="rgb(65.25116%, 18.966675%, 100%)" offset="0.484375"/><stop stop-opacity="1" stop-color="rgb(65.504456%, 18.856812%, 100%)" offset="0.492188"/><stop stop-opacity="1" stop-color="rgb(65.756226%, 18.748474%, 100%)" offset="0.5"/><stop stop-opacity="1" stop-color="rgb(66.007996%, 18.640137%, 100%)" offset="0.507813"/><stop stop-opacity="1" stop-color="rgb(66.261292%, 18.531799%, 100%)" offset="0.515625"/><stop stop-opacity="1" stop-color="rgb(66.513062%, 18.421936%, 100%)" offset="0.523437"/><stop stop-opacity="1" stop-color="rgb(66.764832%, 18.313599%, 100%)" offset="0.53125"/><stop stop-opacity="1" stop-color="rgb(67.018127%, 18.205261%, 100%)" offset="0.539063"/><stop stop-opacity="1" stop-color="rgb(67.269897%, 18.095398%, 100%)" offset="0.546875"/><stop stop-opacity="1" stop-color="rgb(67.521667%, 17.987061%, 100%)" offset="0.554688"/><stop stop-opacity="1" stop-color="rgb(67.774963%, 17.878723%, 100%)" offset="0.5625"/><stop stop-opacity="1" stop-color="rgb(68.026733%, 17.770386%, 100%)" offset="0.570312"/><stop stop-opacity="1" stop-color="rgb(68.278503%, 17.660522%, 100%)" offset="0.578125"/><stop stop-opacity="1" stop-color="rgb(68.531799%, 17.552185%, 100%)" offset="0.585937"/><stop stop-opacity="1" stop-color="rgb(68.783569%, 17.443848%, 100%)" offset="0.59375"/><stop stop-opacity="1" stop-color="rgb(69.035339%, 17.33551%, 100%)" offset="0.601563"/><stop stop-opacity="1" stop-color="rgb(69.288635%, 17.225647%, 100%)" offset="0.609375"/><stop stop-opacity="1" stop-color="rgb(69.540405%, 17.11731%, 100%)" offset="0.617188"/><stop stop-opacity="1" stop-color="rgb(69.792175%, 17.008972%, 100%)" offset="0.625"/><stop stop-opacity="1" stop-color="rgb(70.045471%, 16.900635%, 100%)" offset="0.632812"/><stop stop-opacity="1" stop-color="rgb(70.297241%, 16.790771%, 100%)" offset="0.640625"/><stop stop-opacity="1" stop-color="rgb(70.549011%, 16.682434%, 100%)" offset="0.648437"/><stop stop-opacity="1" stop-color="rgb(70.800781%, 16.574097%, 100%)" offset="0.65625"/><stop stop-opacity="1" stop-color="rgb(71.054077%, 16.464233%, 100%)" offset="0.664063"/><stop stop-opacity="1" stop-color="rgb(71.305847%, 16.355896%, 100%)" offset="0.671875"/><stop stop-opacity="1" stop-color="rgb(71.557617%, 16.247559%, 100%)" offset="0.679688"/><stop stop-opacity="1" stop-color="rgb(71.810913%, 16.139221%, 100%)" offset="0.6875"/><stop stop-opacity="1" stop-color="rgb(72.062683%, 16.029358%, 100%)" offset="0.695312"/><stop stop-opacity="1" stop-color="rgb(72.314453%, 15.921021%, 100%)" offset="0.703125"/><stop stop-opacity="1" stop-color="rgb(72.567749%, 15.812683%, 100%)" offset="0.710937"/><stop stop-opacity="1" stop-color="rgb(72.819519%, 15.704346%, 100%)" offset="0.71875"/><stop stop-opacity="1" stop-color="rgb(73.071289%, 15.594482%, 100%)" offset="0.726563"/><stop stop-opacity="1" stop-color="rgb(73.324585%, 15.486145%, 100%)" offset="0.734375"/><stop stop-opacity="1" stop-color="rgb(73.576355%, 15.377808%, 100%)" offset="0.742188"/><stop stop-opacity="1" stop-color="rgb(73.828125%, 15.26947%, 100%)" offset="0.75"/><stop stop-opacity="1" stop-color="rgb(74.081421%, 15.159607%, 100%)" offset="0.757812"/><stop stop-opacity="1" stop-color="rgb(74.333191%, 15.05127%, 100%)" offset="0.765625"/><stop stop-opacity="1" stop-color="rgb(74.584961%, 14.942932%, 100%)" offset="0.773437"/><stop stop-opacity="1" stop-color="rgb(74.838257%, 14.833069%, 100%)" offset="0.78125"/><stop stop-opacity="1" stop-color="rgb(75.090027%, 14.724731%, 100%)" offset="0.789063"/><stop stop-opacity="1" stop-color="rgb(75.341797%, 14.616394%, 100%)" offset="0.796875"/><stop stop-opacity="1" stop-color="rgb(75.595093%, 14.508057%, 100%)" offset="0.804688"/><stop stop-opacity="1" stop-color="rgb(75.846863%, 14.398193%, 100%)" offset="0.8125"/><stop stop-opacity="1" stop-color="rgb(76.098633%, 14.289856%, 100%)" offset="0.820312"/><stop stop-opacity="1" stop-color="rgb(76.351929%, 14.181519%, 100%)" offset="0.828125"/><stop stop-opacity="1" stop-color="rgb(76.603699%, 14.073181%, 100%)" offset="0.835937"/><stop stop-opacity="1" stop-color="rgb(76.855469%, 13.963318%, 100%)" offset="0.84375"/><stop stop-opacity="1" stop-color="rgb(77.107239%, 13.85498%, 100%)" offset="0.851563"/><stop stop-opacity="1" stop-color="rgb(77.360535%, 13.746643%, 100%)" offset="0.859375"/><stop stop-opacity="1" stop-color="rgb(77.612305%, 13.638306%, 100%)" offset="0.867188"/><stop stop-opacity="1" stop-color="rgb(77.864075%, 13.528442%, 100%)" offset="0.875"/><stop stop-opacity="1" stop-color="rgb(78.117371%, 13.420105%, 100%)" offset="0.882813"/><stop stop-opacity="1" stop-color="rgb(78.321838%, 13.33313%, 100%)" offset="0.890625"/><stop stop-opacity="1" stop-color="rgb(78.399658%, 13.299561%, 100%)" offset="0.90625"/><stop stop-opacity="1" stop-color="rgb(78.399658%, 13.299561%, 100%)" offset="0.9375"/><stop stop-opacity="1" stop-color="rgb(78.399658%, 13.299561%, 100%)" offset="1"/></linearGradient></defs><g clip-path="url(#id1)"><g clip-path="url(#id2)"><path fill="url(#id3)" d="M 14.429688 43.863281 L 14.429688 63.453125 L 53.28125 63.453125 L 53.28125 43.863281 Z M 14.429688 43.863281 " fill-rule="nonzero"/></g></g><g clip-path="url(#id4)"><g clip-path="url(#id5)"><path fill="url(#id6)" d="M 13.09375 20.429688 L 13.09375 64.757812 L 54.617188 64.757812 L 54.617188 20.429688 Z M 13.09375 20.429688 " fill-rule="nonzero"/></g></g><g clip-path="url(#id7)"><g clip-path="url(#id8)"><path fill="url(#id9)" d="M 11.394531 56.832031 L 11.394531 87.105469 L 56.316406 87.105469 L 56.316406 56.832031 Z M 11.394531 56.832031 " fill-rule="nonzero"/></g></g><g fill="#ff00ff" fill-opacity="1"><g transform="translate(66.625429, 52.400064)"><g><path d="M 13.671875 0 L 7.578125 0 C 5.503906 0 3.960938 -0.414062 2.953125 -1.25 C 1.953125 -2.082031 1.453125 -3.363281 1.453125 -5.09375 L 1.453125 -12.84375 C 1.453125 -14.582031 1.953125 -15.867188 2.953125 -16.703125 C 3.960938 -17.546875 5.503906 -17.96875 7.578125 -17.96875 L 13.671875 -17.96875 C 13.984375 -17.96875 14.210938 -17.894531 14.359375 -17.75 C 14.503906 -17.613281 14.578125 -17.382812 14.578125 -17.0625 L 14.578125 -14.046875 C 14.578125 -13.734375 14.503906 -13.503906 14.359375 -13.359375 C 14.210938 -13.222656 13.984375 -13.15625 13.671875 -13.15625 L 8.65625 -13.15625 C 8.144531 -13.15625 7.765625 -13.050781 7.515625 -12.84375 C 7.265625 -12.632812 7.140625 -12.320312 7.140625 -11.90625 L 7.140625 -5.96875 C 7.140625 -5.550781 7.265625 -5.242188 7.515625 -5.046875 C 7.765625 -4.859375 8.144531 -4.765625 8.65625 -4.765625 L 13.671875 -4.765625 C 13.984375 -4.765625 14.210938 -4.691406 14.359375 -4.546875 C 14.503906 -4.410156 14.578125 -4.1875 14.578125 -3.875 L 14.578125 -0.890625 C 14.578125 -0.578125 14.503906 -0.347656 14.359375 -0.203125 C 14.210938 -0.0664062 13.984375 0 13.671875 0 Z M 13.671875 0 "/></g></g></g><g fill="#ff00ff" fill-opacity="1"><g transform="translate(82.295161, 52.400064)"><g><path d="M 7.359375 -13.46875 L 7.359375 -10.28125 L 9.234375 -10.28125 C 9.660156 -10.28125 9.945312 -10.390625 10.09375 -10.609375 C 10.25 -10.835938 10.328125 -11.117188 10.328125 -11.453125 L 10.328125 -12.296875 C 10.328125 -12.628906 10.25 -12.90625 10.09375 -13.125 C 9.945312 -13.351562 9.660156 -13.46875 9.234375 -13.46875 Z M 6.46875 0 L 2.625 0 C 2.300781 0 2.066406 -0.0664062 1.921875 -0.203125 C 1.785156 -0.347656 1.71875 -0.578125 1.71875 -0.890625 L 1.71875 -17.0625 C 1.71875 -17.382812 1.785156 -17.613281 1.921875 -17.75 C 2.066406 -17.894531 2.300781 -17.96875 2.625 -17.96875 L 10.921875 -17.96875 C 12.785156 -17.96875 14.070312 -17.578125 14.78125 -16.796875 C 15.488281 -16.023438 15.84375 -15.023438 15.84375 -13.796875 L 15.84375 -12.65625 C 15.84375 -11.957031 15.738281 -11.359375 15.53125 -10.859375 C 15.320312 -10.367188 14.960938 -10.019531 14.453125 -9.8125 C 15.347656 -9.707031 16.070312 -9.335938 16.625 -8.703125 C 17.1875 -8.078125 17.46875 -7.238281 17.46875 -6.1875 L 17.46875 -0.890625 C 17.46875 -0.578125 17.394531 -0.347656 17.25 -0.203125 C 17.113281 -0.0664062 16.882812 0 16.5625 0 L 12.703125 0 C 12.390625 0 12.160156 -0.0664062 12.015625 -0.203125 C 11.867188 -0.347656 11.796875 -0.578125 11.796875 -0.890625 L 11.796875 -4.71875 C 11.796875 -5.082031 11.722656 -5.351562 11.578125 -5.53125 C 11.441406 -5.707031 11.203125 -5.796875 10.859375 -5.796875 L 7.359375 -5.796875 L 7.359375 -0.890625 C 7.359375 -0.578125 7.285156 -0.347656 7.140625 -0.203125 C 7.003906 -0.0664062 6.78125 0 6.46875 0 Z M 6.46875 0 "/></g></g></g><g fill="#ff00ff" fill-opacity="1"><g transform="translate(100.834344, 52.400064)"><g><path d="M 10.828125 0 L 6.78125 0 C 6.46875 0 6.238281 -0.0664062 6.09375 -0.203125 C 5.957031 -0.347656 5.890625 -0.578125 5.890625 -0.890625 L 5.890625 -4.09375 L 2.078125 -9.203125 C 1.691406 -9.722656 1.4375 -10.171875 1.3125 -10.546875 C 1.1875 -10.929688 1.125 -11.507812 1.125 -12.28125 L 1.125 -17.0625 C 1.125 -17.382812 1.191406 -17.613281 1.328125 -17.75 C 1.472656 -17.894531 1.703125 -17.96875 2.015625 -17.96875 L 5.859375 -17.96875 C 6.179688 -17.96875 6.410156 -17.894531 6.546875 -17.75 C 6.691406 -17.613281 6.765625 -17.382812 6.765625 -17.0625 L 6.765625 -12.96875 C 6.765625 -12.800781 6.769531 -12.625 6.78125 -12.4375 C 6.800781 -12.257812 6.867188 -12.085938 6.984375 -11.921875 L 8.140625 -10.125 C 8.222656 -9.976562 8.304688 -9.867188 8.390625 -9.796875 C 8.484375 -9.734375 8.597656 -9.703125 8.734375 -9.703125 L 8.984375 -9.703125 C 9.117188 -9.703125 9.226562 -9.734375 9.3125 -9.796875 C 9.40625 -9.867188 9.492188 -9.976562 9.578125 -10.125 L 10.734375 -11.921875 C 10.847656 -12.085938 10.910156 -12.257812 10.921875 -12.4375 C 10.941406 -12.625 10.953125 -12.800781 10.953125 -12.96875 L 10.953125 -17.0625 C 10.953125 -17.382812 11.019531 -17.613281 11.15625 -17.75 C 11.300781 -17.894531 11.535156 -17.96875 11.859375 -17.96875 L 15.578125 -17.96875 C 15.890625 -17.96875 16.113281 -17.894531 16.25 -17.75 C 16.394531 -17.613281 16.46875 -17.382812 16.46875 -17.0625 L 16.46875 -12.28125 C 16.46875 -11.507812 16.398438 -10.929688 16.265625 -10.546875 C 16.128906 -10.171875 15.878906 -9.722656 15.515625 -9.203125 L 11.734375 -4.0625 L 11.734375 -0.890625 C 11.734375 -0.578125 11.660156 -0.347656 11.515625 -0.203125 C 11.367188 -0.0664062 11.140625 0 10.828125 0 Z M 10.828125 0 "/></g></g></g><g fill="#ff00ff" fill-opacity="1"><g transform="translate(118.42536, 52.400064)"><g><path d="M 6.484375 0 L 2.625 0 C 2.300781 0 2.066406 -0.0664062 1.921875 -0.203125 C 1.785156 -0.347656 1.71875 -0.578125 1.71875 -0.890625 L 1.71875 -17.0625 C 1.71875 -17.382812 1.785156 -17.613281 1.921875 -17.75 C 2.066406 -17.894531 2.300781 -17.96875 2.625 -17.96875 L 10.25 -17.96875 C 12.519531 -17.96875 14.066406 -17.515625 14.890625 -16.609375 C 15.722656 -15.710938 16.140625 -14.539062 16.140625 -13.09375 L 16.140625 -9.90625 C 16.140625 -8.457031 15.722656 -7.285156 14.890625 -6.390625 C 14.066406 -5.492188 12.519531 -5.046875 10.25 -5.046875 L 7.390625 -5.046875 L 7.390625 -0.890625 C 7.390625 -0.578125 7.316406 -0.347656 7.171875 -0.203125 C 7.035156 -0.0664062 6.804688 0 6.484375 0 Z M 7.34375 -13.296875 L 7.34375 -9.53125 L 9.578125 -9.53125 C 10.066406 -9.53125 10.382812 -9.65625 10.53125 -9.90625 C 10.675781 -10.15625 10.75 -10.4375 10.75 -10.75 L 10.75 -12.078125 C 10.75 -12.390625 10.675781 -12.671875 10.53125 -12.921875 C 10.382812 -13.171875 10.066406 -13.296875 9.578125 -13.296875 Z M 7.34375 -13.296875 "/></g></g></g><g fill="#ff00ff" fill-opacity="1"><g transform="translate(135.442488, 52.400064)"><g><path d="M 10.203125 0 L 6.15625 0 C 5.84375 0 5.613281 -0.0664062 5.46875 -0.203125 C 5.332031 -0.347656 5.265625 -0.578125 5.265625 -0.890625 L 5.265625 -13.15625 L 1.59375 -13.15625 C 1.28125 -13.15625 1.050781 -13.222656 0.90625 -13.359375 C 0.769531 -13.503906 0.703125 -13.734375 0.703125 -14.046875 L 0.703125 -17.0625 C 0.703125 -17.382812 0.769531 -17.613281 0.90625 -17.75 C 1.050781 -17.894531 1.28125 -17.96875 1.59375 -17.96875 L 14.765625 -17.96875 C 15.085938 -17.96875 15.316406 -17.894531 15.453125 -17.75 C 15.597656 -17.613281 15.671875 -17.382812 15.671875 -17.0625 L 15.671875 -14.046875 C 15.671875 -13.734375 15.597656 -13.503906 15.453125 -13.359375 C 15.316406 -13.222656 15.085938 -13.15625 14.765625 -13.15625 L 11.109375 -13.15625 L 11.109375 -0.890625 C 11.109375 -0.578125 11.035156 -0.347656 10.890625 -0.203125 C 10.753906 -0.0664062 10.523438 0 10.203125 0 Z M 10.203125 0 "/></g></g></g><g fill="#ff00ff" fill-opacity="1"><g transform="translate(151.810868, 52.400064)"><g><path d="M 16.9375 -4.71875 C 16.9375 -3.945312 16.820312 -3.25 16.59375 -2.625 C 16.375 -2.007812 15.976562 -1.476562 15.40625 -1.03125 C 14.832031 -0.59375 14.039062 -0.25 13.03125 0 C 12.03125 0.25 10.753906 0.375 9.203125 0.375 C 7.660156 0.375 6.378906 0.25 5.359375 0 C 4.347656 -0.25 3.554688 -0.59375 2.984375 -1.03125 C 2.410156 -1.476562 2.007812 -2.007812 1.78125 -2.625 C 1.5625 -3.25 1.453125 -3.945312 1.453125 -4.71875 L 1.453125 -13.21875 C 1.453125 -13.988281 1.5625 -14.6875 1.78125 -15.3125 C 2.007812 -15.9375 2.410156 -16.472656 2.984375 -16.921875 C 3.554688 -17.367188 4.347656 -17.71875 5.359375 -17.96875 C 6.378906 -18.21875 7.660156 -18.34375 9.203125 -18.34375 C 10.753906 -18.34375 12.03125 -18.21875 13.03125 -17.96875 C 14.039062 -17.71875 14.832031 -17.367188 15.40625 -16.921875 C 15.976562 -16.472656 16.375 -15.9375 16.59375 -15.3125 C 16.820312 -14.6875 16.9375 -13.988281 16.9375 -13.21875 Z M 7.109375 -5.609375 C 7.109375 -5.273438 7.234375 -4.992188 7.484375 -4.765625 C 7.734375 -4.546875 8.304688 -4.4375 9.203125 -4.4375 C 10.109375 -4.4375 10.679688 -4.546875 10.921875 -4.765625 C 11.171875 -4.992188 11.296875 -5.273438 11.296875 -5.609375 L 11.296875 -12.328125 C 11.296875 -12.640625 11.171875 -12.90625 10.921875 -13.125 C 10.679688 -13.351562 10.109375 -13.46875 9.203125 -13.46875 C 8.304688 -13.46875 7.734375 -13.351562 7.484375 -13.125 C 7.234375 -12.90625 7.109375 -12.640625 7.109375 -12.328125 Z M 7.109375 -5.609375 "/></g></g></g><g fill="#00ffff" fill-opacity="1"><g transform="translate(67.925842, 51.187406)"><g><path d="M 13.671875 0 L 7.578125 0 C 5.503906 0 3.960938 -0.414062 2.953125 -1.25 C 1.953125 -2.082031 1.453125 -3.363281 1.453125 -5.09375 L 1.453125 -12.84375 C 1.453125 -14.582031 1.953125 -15.867188 2.953125 -16.703125 C 3.960938 -17.546875 5.503906 -17.96875 7.578125 -17.96875 L 13.671875 -17.96875 C 13.984375 -17.96875 14.210938 -17.894531 14.359375 -17.75 C 14.503906 -17.613281 14.578125 -17.382812 14.578125 -17.0625 L 14.578125 -14.046875 C 14.578125 -13.734375 14.503906 -13.503906 14.359375 -13.359375 C 14.210938 -13.222656 13.984375 -13.15625 13.671875 -13.15625 L 8.65625 -13.15625 C 8.144531 -13.15625 7.765625 -13.050781 7.515625 -12.84375 C 7.265625 -12.632812 7.140625 -12.320312 7.140625 -11.90625 L 7.140625 -5.96875 C 7.140625 -5.550781 7.265625 -5.242188 7.515625 -5.046875 C 7.765625 -4.859375 8.144531 -4.765625 8.65625 -4.765625 L 13.671875 -4.765625 C 13.984375 -4.765625 14.210938 -4.691406 14.359375 -4.546875 C 14.503906 -4.410156 14.578125 -4.1875 14.578125 -3.875 L 14.578125 -0.890625 C 14.578125 -0.578125 14.503906 -0.347656 14.359375 -0.203125 C 14.210938 -0.0664062 13.984375 0 13.671875 0 Z M 13.671875 0 "/></g></g></g><g fill="#00ffff" fill-opacity="1"><g transform="translate(83.595575, 51.187406)"><g><path d="M 7.359375 -13.46875 L 7.359375 -10.28125 L 9.234375 -10.28125 C 9.660156 -10.28125 9.945312 -10.390625 10.09375 -10.609375 C 10.25 -10.835938 10.328125 -11.117188 10.328125 -11.453125 L 10.328125 -12.296875 C 10.328125 -12.628906 10.25 -12.90625 10.09375 -13.125 C 9.945312 -13.351562 9.660156 -13.46875 9.234375 -13.46875 Z M 6.46875 0 L 2.625 0 C 2.300781 0 2.066406 -0.0664062 1.921875 -0.203125 C 1.785156 -0.347656 1.71875 -0.578125 1.71875 -0.890625 L 1.71875 -17.0625 C 1.71875 -17.382812 1.785156 -17.613281 1.921875 -17.75 C 2.066406 -17.894531 2.300781 -17.96875 2.625 -17.96875 L 10.921875 -17.96875 C 12.785156 -17.96875 14.070312 -17.578125 14.78125 -16.796875 C 15.488281 -16.023438 15.84375 -15.023438 15.84375 -13.796875 L 15.84375 -12.65625 C 15.84375 -11.957031 15.738281 -11.359375 15.53125 -10.859375 C 15.320312 -10.367188 14.960938 -10.019531 14.453125 -9.8125 C 15.347656 -9.707031 16.070312 -9.335938 16.625 -8.703125 C 17.1875 -8.078125 17.46875 -7.238281 17.46875 -6.1875 L 17.46875 -0.890625 C 17.46875 -0.578125 17.394531 -0.347656 17.25 -0.203125 C 17.113281 -0.0664062 16.882812 0 16.5625 0 L 12.703125 0 C 12.390625 0 12.160156 -0.0664062 12.015625 -0.203125 C 11.867188 -0.347656 11.796875 -0.578125 11.796875 -0.890625 L 11.796875 -4.71875 C 11.796875 -5.082031 11.722656 -5.351562 11.578125 -5.53125 C 11.441406 -5.707031 11.203125 -5.796875 10.859375 -5.796875 L 7.359375 -5.796875 L 7.359375 -0.890625 C 7.359375 -0.578125 7.285156 -0.347656 7.140625 -0.203125 C 7.003906 -0.0664062 6.78125 0 6.46875 0 Z M 6.46875 0 "/></g></g></g><g fill="#00ffff" fill-opacity="1"><g transform="translate(102.134757, 51.187406)"><g><path d="M 10.828125 0 L 6.78125 0 C 6.46875 0 6.238281 -0.0664062 6.09375 -0.203125 C 5.957031 -0.347656 5.890625 -0.578125 5.890625 -0.890625 L 5.890625 -4.09375 L 2.078125 -9.203125 C 1.691406 -9.722656 1.4375 -10.171875 1.3125 -10.546875 C 1.1875 -10.929688 1.125 -11.507812 1.125 -12.28125 L 1.125 -17.0625 C 1.125 -17.382812 1.191406 -17.613281 1.328125 -17.75 C 1.472656 -17.894531 1.703125 -17.96875 2.015625 -17.96875 L 5.859375 -17.96875 C 6.179688 -17.96875 6.410156 -17.894531 6.546875 -17.75 C 6.691406 -17.613281 6.765625 -17.382812 6.765625 -17.0625 L 6.765625 -12.96875 C 6.765625 -12.800781 6.769531 -12.625 6.78125 -12.4375 C 6.800781 -12.257812 6.867188 -12.085938 6.984375 -11.921875 L 8.140625 -10.125 C 8.222656 -9.976562 8.304688 -9.867188 8.390625 -9.796875 C 8.484375 -9.734375 8.597656 -9.703125 8.734375 -9.703125 L 8.984375 -9.703125 C 9.117188 -9.703125 9.226562 -9.734375 9.3125 -9.796875 C 9.40625 -9.867188 9.492188 -9.976562 9.578125 -10.125 L 10.734375 -11.921875 C 10.847656 -12.085938 10.910156 -12.257812 10.921875 -12.4375 C 10.941406 -12.625 10.953125 -12.800781 10.953125 -12.96875 L 10.953125 -17.0625 C 10.953125 -17.382812 11.019531 -17.613281 11.15625 -17.75 C 11.300781 -17.894531 11.535156 -17.96875 11.859375 -17.96875 L 15.578125 -17.96875 C 15.890625 -17.96875 16.113281 -17.894531 16.25 -17.75 C 16.394531 -17.613281 16.46875 -17.382812 16.46875 -17.0625 L 16.46875 -12.28125 C 16.46875 -11.507812 16.398438 -10.929688 16.265625 -10.546875 C 16.128906 -10.171875 15.878906 -9.722656 15.515625 -9.203125 L 11.734375 -4.0625 L 11.734375 -0.890625 C 11.734375 -0.578125 11.660156 -0.347656 11.515625 -0.203125 C 11.367188 -0.0664062 11.140625 0 10.828125 0 Z M 10.828125 0 "/></g></g></g><g fill="#00ffff" fill-opacity="1"><g transform="translate(119.725773, 51.187406)"><g><path d="M 6.484375 0 L 2.625 0 C 2.300781 0 2.066406 -0.0664062 1.921875 -0.203125 C 1.785156 -0.347656 1.71875 -0.578125 1.71875 -0.890625 L 1.71875 -17.0625 C 1.71875 -17.382812 1.785156 -17.613281 1.921875 -17.75 C 2.066406 -17.894531 2.300781 -17.96875 2.625 -17.96875 L 10.25 -17.96875 C 12.519531 -17.96875 14.066406 -17.515625 14.890625 -16.609375 C 15.722656 -15.710938 16.140625 -14.539062 16.140625 -13.09375 L 16.140625 -9.90625 C 16.140625 -8.457031 15.722656 -7.285156 14.890625 -6.390625 C 14.066406 -5.492188 12.519531 -5.046875 10.25 -5.046875 L 7.390625 -5.046875 L 7.390625 -0.890625 C 7.390625 -0.578125 7.316406 -0.347656 7.171875 -0.203125 C 7.035156 -0.0664062 6.804688 0 6.484375 0 Z M 7.34375 -13.296875 L 7.34375 -9.53125 L 9.578125 -9.53125 C 10.066406 -9.53125 10.382812 -9.65625 10.53125 -9.90625 C 10.675781 -10.15625 10.75 -10.4375 10.75 -10.75 L 10.75 -12.078125 C 10.75 -12.390625 10.675781 -12.671875 10.53125 -12.921875 C 10.382812 -13.171875 10.066406 -13.296875 9.578125 -13.296875 Z M 7.34375 -13.296875 "/></g></g></g><g fill="#00ffff" fill-opacity="1"><g transform="translate(136.742901, 51.187406)"><g><path d="M 10.203125 0 L 6.15625 0 C 5.84375 0 5.613281 -0.0664062 5.46875 -0.203125 C 5.332031 -0.347656 5.265625 -0.578125 5.265625 -0.890625 L 5.265625 -13.15625 L 1.59375 -13.15625 C 1.28125 -13.15625 1.050781 -13.222656 0.90625 -13.359375 C 0.769531 -13.503906 0.703125 -13.734375 0.703125 -14.046875 L 0.703125 -17.0625 C 0.703125 -17.382812 0.769531 -17.613281 0.90625 -17.75 C 1.050781 -17.894531 1.28125 -17.96875 1.59375 -17.96875 L 14.765625 -17.96875 C 15.085938 -17.96875 15.316406 -17.894531 15.453125 -17.75 C 15.597656 -17.613281 15.671875 -17.382812 15.671875 -17.0625 L 15.671875 -14.046875 C 15.671875 -13.734375 15.597656 -13.503906 15.453125 -13.359375 C 15.316406 -13.222656 15.085938 -13.15625 14.765625 -13.15625 L 11.109375 -13.15625 L 11.109375 -0.890625 C 11.109375 -0.578125 11.035156 -0.347656 10.890625 -0.203125 C 10.753906 -0.0664062 10.523438 0 10.203125 0 Z M 10.203125 0 "/></g></g></g><g fill="#00ffff" fill-opacity="1"><g transform="translate(153.111281, 51.187406)"><g><path d="M 16.9375 -4.71875 C 16.9375 -3.945312 16.820312 -3.25 16.59375 -2.625 C 16.375 -2.007812 15.976562 -1.476562 15.40625 -1.03125 C 14.832031 -0.59375 14.039062 -0.25 13.03125 0 C 12.03125 0.25 10.753906 0.375 9.203125 0.375 C 7.660156 0.375 6.378906 0.25 5.359375 0 C 4.347656 -0.25 3.554688 -0.59375 2.984375 -1.03125 C 2.410156 -1.476562 2.007812 -2.007812 1.78125 -2.625 C 1.5625 -3.25 1.453125 -3.945312 1.453125 -4.71875 L 1.453125 -13.21875 C 1.453125 -13.988281 1.5625 -14.6875 1.78125 -15.3125 C 2.007812 -15.9375 2.410156 -16.472656 2.984375 -16.921875 C 3.554688 -17.367188 4.347656 -17.71875 5.359375 -17.96875 C 6.378906 -18.21875 7.660156 -18.34375 9.203125 -18.34375 C 10.753906 -18.34375 12.03125 -18.21875 13.03125 -17.96875 C 14.039062 -17.71875 14.832031 -17.367188 15.40625 -16.921875 C 15.976562 -16.472656 16.375 -15.9375 16.59375 -15.3125 C 16.820312 -14.6875 16.9375 -13.988281 16.9375 -13.21875 Z M 7.109375 -5.609375 C 7.109375 -5.273438 7.234375 -4.992188 7.484375 -4.765625 C 7.734375 -4.546875 8.304688 -4.4375 9.203125 -4.4375 C 10.109375 -4.4375 10.679688 -4.546875 10.921875 -4.765625 C 11.171875 -4.992188 11.296875 -5.273438 11.296875 -5.609375 L 11.296875 -12.328125 C 11.296875 -12.640625 11.171875 -12.90625 10.921875 -13.125 C 10.679688 -13.351562 10.109375 -13.46875 9.203125 -13.46875 C 8.304688 -13.46875 7.734375 -13.351562 7.484375 -13.125 C 7.234375 -12.90625 7.109375 -12.640625 7.109375 -12.328125 Z M 7.109375 -5.609375 "/></g></g></g><g fill="#5e17eb" fill-opacity="1"><g transform="translate(67.275637, 51.793735)"><g><path d="M 13.671875 0 L 7.578125 0 C 5.503906 0 3.960938 -0.414062 2.953125 -1.25 C 1.953125 -2.082031 1.453125 -3.363281 1.453125 -5.09375 L 1.453125 -12.84375 C 1.453125 -14.582031 1.953125 -15.867188 2.953125 -16.703125 C 3.960938 -17.546875 5.503906 -17.96875 7.578125 -17.96875 L 13.671875 -17.96875 C 13.984375 -17.96875 14.210938 -17.894531 14.359375 -17.75 C 14.503906 -17.613281 14.578125 -17.382812 14.578125 -17.0625 L 14.578125 -14.046875 C 14.578125 -13.734375 14.503906 -13.503906 14.359375 -13.359375 C 14.210938 -13.222656 13.984375 -13.15625 13.671875 -13.15625 L 8.65625 -13.15625 C 8.144531 -13.15625 7.765625 -13.050781 7.515625 -12.84375 C 7.265625 -12.632812 7.140625 -12.320312 7.140625 -11.90625 L 7.140625 -5.96875 C 7.140625 -5.550781 7.265625 -5.242188 7.515625 -5.046875 C 7.765625 -4.859375 8.144531 -4.765625 8.65625 -4.765625 L 13.671875 -4.765625 C 13.984375 -4.765625 14.210938 -4.691406 14.359375 -4.546875 C 14.503906 -4.410156 14.578125 -4.1875 14.578125 -3.875 L 14.578125 -0.890625 C 14.578125 -0.578125 14.503906 -0.347656 14.359375 -0.203125 C 14.210938 -0.0664062 13.984375 0 13.671875 0 Z M 13.671875 0 "/></g></g></g><g fill="#5e17eb" fill-opacity="1"><g transform="translate(82.945369, 51.793735)"><g><path d="M 7.359375 -13.46875 L 7.359375 -10.28125 L 9.234375 -10.28125 C 9.660156 -10.28125 9.945312 -10.390625 10.09375 -10.609375 C 10.25 -10.835938 10.328125 -11.117188 10.328125 -11.453125 L 10.328125 -12.296875 C 10.328125 -12.628906 10.25 -12.90625 10.09375 -13.125 C 9.945312 -13.351562 9.660156 -13.46875 9.234375 -13.46875 Z M 6.46875 0 L 2.625 0 C 2.300781 0 2.066406 -0.0664062 1.921875 -0.203125 C 1.785156 -0.347656 1.71875 -0.578125 1.71875 -0.890625 L 1.71875 -17.0625 C 1.71875 -17.382812 1.785156 -17.613281 1.921875 -17.75 C 2.066406 -17.894531 2.300781 -17.96875 2.625 -17.96875 L 10.921875 -17.96875 C 12.785156 -17.96875 14.070312 -17.578125 14.78125 -16.796875 C 15.488281 -16.023438 15.84375 -15.023438 15.84375 -13.796875 L 15.84375 -12.65625 C 15.84375 -11.957031 15.738281 -11.359375 15.53125 -10.859375 C 15.320312 -10.367188 14.960938 -10.019531 14.453125 -9.8125 C 15.347656 -9.707031 16.070312 -9.335938 16.625 -8.703125 C 17.1875 -8.078125 17.46875 -7.238281 17.46875 -6.1875 L 17.46875 -0.890625 C 17.46875 -0.578125 17.394531 -0.347656 17.25 -0.203125 C 17.113281 -0.0664062 16.882812 0 16.5625 0 L 12.703125 0 C 12.390625 0 12.160156 -0.0664062 12.015625 -0.203125 C 11.867188 -0.347656 11.796875 -0.578125 11.796875 -0.890625 L 11.796875 -4.71875 C 11.796875 -5.082031 11.722656 -5.351562 11.578125 -5.53125 C 11.441406 -5.707031 11.203125 -5.796875 10.859375 -5.796875 L 7.359375 -5.796875 L 7.359375 -0.890625 C 7.359375 -0.578125 7.285156 -0.347656 7.140625 -0.203125 C 7.003906 -0.0664062 6.78125 0 6.46875 0 Z M 6.46875 0 "/></g></g></g><g fill="#5e17eb" fill-opacity="1"><g transform="translate(101.484552, 51.793735)"><g><path d="M 10.828125 0 L 6.78125 0 C 6.46875 0 6.238281 -0.0664062 6.09375 -0.203125 C 5.957031 -0.347656 5.890625 -0.578125 5.890625 -0.890625 L 5.890625 -4.09375 L 2.078125 -9.203125 C 1.691406 -9.722656 1.4375 -10.171875 1.3125 -10.546875 C 1.1875 -10.929688 1.125 -11.507812 1.125 -12.28125 L 1.125 -17.0625 C 1.125 -17.382812 1.191406 -17.613281 1.328125 -17.75 C 1.472656 -17.894531 1.703125 -17.96875 2.015625 -17.96875 L 5.859375 -17.96875 C 6.179688 -17.96875 6.410156 -17.894531 6.546875 -17.75 C 6.691406 -17.613281 6.765625 -17.382812 6.765625 -17.0625 L 6.765625 -12.96875 C 6.765625 -12.800781 6.769531 -12.625 6.78125 -12.4375 C 6.800781 -12.257812 6.867188 -12.085938 6.984375 -11.921875 L 8.140625 -10.125 C 8.222656 -9.976562 8.304688 -9.867188 8.390625 -9.796875 C 8.484375 -9.734375 8.597656 -9.703125 8.734375 -9.703125 L 8.984375 -9.703125 C 9.117188 -9.703125 9.226562 -9.734375 9.3125 -9.796875 C 9.40625 -9.867188 9.492188 -9.976562 9.578125 -10.125 L 10.734375 -11.921875 C 10.847656 -12.085938 10.910156 -12.257812 10.921875 -12.4375 C 10.941406 -12.625 10.953125 -12.800781 10.953125 -12.96875 L 10.953125 -17.0625 C 10.953125 -17.382812 11.019531 -17.613281 11.15625 -17.75 C 11.300781 -17.894531 11.535156 -17.96875 11.859375 -17.96875 L 15.578125 -17.96875 C 15.890625 -17.96875 16.113281 -17.894531 16.25 -17.75 C 16.394531 -17.613281 16.46875 -17.382812 16.46875 -17.0625 L 16.46875 -12.28125 C 16.46875 -11.507812 16.398438 -10.929688 16.265625 -10.546875 C 16.128906 -10.171875 15.878906 -9.722656 15.515625 -9.203125 L 11.734375 -4.0625 L 11.734375 -0.890625 C 11.734375 -0.578125 11.660156 -0.347656 11.515625 -0.203125 C 11.367188 -0.0664062 11.140625 0 10.828125 0 Z M 10.828125 0 "/></g></g></g><g fill="#5e17eb" fill-opacity="1"><g transform="translate(119.075568, 51.793735)"><g><path d="M 6.484375 0 L 2.625 0 C 2.300781 0 2.066406 -0.0664062 1.921875 -0.203125 C 1.785156 -0.347656 1.71875 -0.578125 1.71875 -0.890625 L 1.71875 -17.0625 C 1.71875 -17.382812 1.785156 -17.613281 1.921875 -17.75 C 2.066406 -17.894531 2.300781 -17.96875 2.625 -17.96875 L 10.25 -17.96875 C 12.519531 -17.96875 14.066406 -17.515625 14.890625 -16.609375 C 15.722656 -15.710938 16.140625 -14.539062 16.140625 -13.09375 L 16.140625 -9.90625 C 16.140625 -8.457031 15.722656 -7.285156 14.890625 -6.390625 C 14.066406 -5.492188 12.519531 -5.046875 10.25 -5.046875 L 7.390625 -5.046875 L 7.390625 -0.890625 C 7.390625 -0.578125 7.316406 -0.347656 7.171875 -0.203125 C 7.035156 -0.0664062 6.804688 0 6.484375 0 Z M 7.34375 -13.296875 L 7.34375 -9.53125 L 9.578125 -9.53125 C 10.066406 -9.53125 10.382812 -9.65625 10.53125 -9.90625 C 10.675781 -10.15625 10.75 -10.4375 10.75 -10.75 L 10.75 -12.078125 C 10.75 -12.390625 10.675781 -12.671875 10.53125 -12.921875 C 10.382812 -13.171875 10.066406 -13.296875 9.578125 -13.296875 Z M 7.34375 -13.296875 "/></g></g></g><g fill="#5e17eb" fill-opacity="1"><g transform="translate(136.092696, 51.793735)"><g><path d="M 10.203125 0 L 6.15625 0 C 5.84375 0 5.613281 -0.0664062 5.46875 -0.203125 C 5.332031 -0.347656 5.265625 -0.578125 5.265625 -0.890625 L 5.265625 -13.15625 L 1.59375 -13.15625 C 1.28125 -13.15625 1.050781 -13.222656 0.90625 -13.359375 C 0.769531 -13.503906 0.703125 -13.734375 0.703125 -14.046875 L 0.703125 -17.0625 C 0.703125 -17.382812 0.769531 -17.613281 0.90625 -17.75 C 1.050781 -17.894531 1.28125 -17.96875 1.59375 -17.96875 L 14.765625 -17.96875 C 15.085938 -17.96875 15.316406 -17.894531 15.453125 -17.75 C 15.597656 -17.613281 15.671875 -17.382812 15.671875 -17.0625 L 15.671875 -14.046875 C 15.671875 -13.734375 15.597656 -13.503906 15.453125 -13.359375 C 15.316406 -13.222656 15.085938 -13.15625 14.765625 -13.15625 L 11.109375 -13.15625 L 11.109375 -0.890625 C 11.109375 -0.578125 11.035156 -0.347656 10.890625 -0.203125 C 10.753906 -0.0664062 10.523438 0 10.203125 0 Z M 10.203125 0 "/></g></g></g><g fill="#5e17eb" fill-opacity="1"><g transform="translate(152.461076, 51.793735)"><g><path d="M 16.9375 -4.71875 C 16.9375 -3.945312 16.820312 -3.25 16.59375 -2.625 C 16.375 -2.007812 15.976562 -1.476562 15.40625 -1.03125 C 14.832031 -0.59375 14.039062 -0.25 13.03125 0 C 12.03125 0.25 10.753906 0.375 9.203125 0.375 C 7.660156 0.375 6.378906 0.25 5.359375 0 C 4.347656 -0.25 3.554688 -0.59375 2.984375 -1.03125 C 2.410156 -1.476562 2.007812 -2.007812 1.78125 -2.625 C 1.5625 -3.25 1.453125 -3.945312 1.453125 -4.71875 L 1.453125 -13.21875 C 1.453125 -13.988281 1.5625 -14.6875 1.78125 -15.3125 C 2.007812 -15.9375 2.410156 -16.472656 2.984375 -16.921875 C 3.554688 -17.367188 4.347656 -17.71875 5.359375 -17.96875 C 6.378906 -18.21875 7.660156 -18.34375 9.203125 -18.34375 C 10.753906 -18.34375 12.03125 -18.21875 13.03125 -17.96875 C 14.039062 -17.71875 14.832031 -17.367188 15.40625 -16.921875 C 15.976562 -16.472656 16.375 -15.9375 16.59375 -15.3125 C 16.820312 -14.6875 16.9375 -13.988281 16.9375 -13.21875 Z M 7.109375 -5.609375 C 7.109375 -5.273438 7.234375 -4.992188 7.484375 -4.765625 C 7.734375 -4.546875 8.304688 -4.4375 9.203125 -4.4375 C 10.109375 -4.4375 10.679688 -4.546875 10.921875 -4.765625 C 11.171875 -4.992188 11.296875 -5.273438 11.296875 -5.609375 L 11.296875 -12.328125 C 11.296875 -12.640625 11.171875 -12.90625 10.921875 -13.125 C 10.679688 -13.351562 10.109375 -13.46875 9.203125 -13.46875 C 8.304688 -13.46875 7.734375 -13.351562 7.484375 -13.125 C 7.234375 -12.90625 7.109375 -12.640625 7.109375 -12.328125 Z M 7.109375 -5.609375 "/></g></g></g><g fill="#ff00ff" fill-opacity="1"><g transform="translate(55.93345, 73.362893)"><g><path d="M 14.15625 0 L 3.03125 0 C 2.664062 0 2.398438 -0.078125 2.234375 -0.234375 C 2.078125 -0.398438 2 -0.671875 2 -1.046875 L 2 -19.796875 C 2 -20.160156 2.078125 -20.421875 2.234375 -20.578125 C 2.398438 -20.742188 2.664062 -20.828125 3.03125 -20.828125 L 12.265625 -20.828125 C 14.160156 -20.828125 15.5625 -20.46875 16.46875 -19.75 C 17.375 -19.03125 17.828125 -17.914062 17.828125 -16.40625 L 17.828125 -15.015625 C 17.828125 -14.203125 17.6875 -13.539062 17.40625 -13.03125 C 17.125 -12.519531 16.695312 -12.140625 16.125 -11.890625 C 17.351562 -11.773438 18.265625 -11.347656 18.859375 -10.609375 C 19.460938 -9.878906 19.765625 -8.8125 19.765625 -7.40625 L 19.765625 -4.75 C 19.765625 -3.125 19.304688 -1.925781 18.390625 -1.15625 C 17.472656 -0.382812 16.0625 0 14.15625 0 Z M 8.5 -15.921875 L 8.5 -12.796875 L 10.96875 -12.796875 C 11.332031 -12.796875 11.601562 -12.890625 11.78125 -13.078125 C 11.96875 -13.273438 12.0625 -13.566406 12.0625 -13.953125 L 12.0625 -14.765625 C 12.0625 -15.148438 11.96875 -15.4375 11.78125 -15.625 C 11.601562 -15.820312 11.332031 -15.921875 10.96875 -15.921875 Z M 8.5 -8.328125 L 8.5 -4.921875 L 12.265625 -4.921875 C 12.628906 -4.921875 12.90625 -5.015625 13.09375 -5.203125 C 13.28125 -5.398438 13.375 -5.691406 13.375 -6.078125 L 13.375 -7.203125 C 13.375 -7.585938 13.28125 -7.867188 13.09375 -8.046875 C 12.90625 -8.234375 12.628906 -8.328125 12.265625 -8.328125 Z M 8.5 -8.328125 "/></g></g></g><g fill="#ff00ff" fill-opacity="1"><g transform="translate(76.915575, 73.362893)"><g><path d="M 9.546875 -14.765625 L 8.1875 -10.359375 L 12.734375 -10.359375 L 11.375 -14.765625 C 11.289062 -14.929688 11.207031 -15.050781 11.125 -15.125 C 11.039062 -15.207031 10.941406 -15.25 10.828125 -15.25 L 10.09375 -15.25 C 9.976562 -15.25 9.878906 -15.207031 9.796875 -15.125 C 9.710938 -15.050781 9.628906 -14.929688 9.546875 -14.765625 Z M 7.90625 -1.046875 C 7.90625 -0.671875 7.820312 -0.398438 7.65625 -0.234375 C 7.488281 -0.078125 7.222656 0 6.859375 0 L 2.609375 0 C 2.234375 0 1.960938 -0.078125 1.796875 -0.234375 C 1.640625 -0.398438 1.5625 -0.671875 1.5625 -1.046875 L 1.5625 -8.6875 C 1.5625 -9.257812 1.648438 -9.921875 1.828125 -10.671875 C 2.015625 -11.429688 2.300781 -12.3125 2.6875 -13.3125 L 5.203125 -19.875 C 5.316406 -20.207031 5.492188 -20.445312 5.734375 -20.59375 C 5.984375 -20.75 6.300781 -20.828125 6.6875 -20.828125 L 14.46875 -20.828125 C 14.832031 -20.828125 15.132812 -20.75 15.375 -20.59375 C 15.613281 -20.445312 15.796875 -20.207031 15.921875 -19.875 L 18.4375 -13.3125 C 18.820312 -12.3125 19.101562 -11.429688 19.28125 -10.671875 C 19.46875 -9.921875 19.5625 -9.257812 19.5625 -8.6875 L 19.5625 -1.046875 C 19.5625 -0.671875 19.476562 -0.398438 19.3125 -0.234375 C 19.144531 -0.078125 18.878906 0 18.515625 0 L 14.15625 0 C 13.769531 0 13.484375 -0.078125 13.296875 -0.234375 C 13.109375 -0.398438 13.015625 -0.671875 13.015625 -1.046875 L 13.015625 -5.09375 L 7.90625 -5.09375 Z M 7.90625 -1.046875 "/></g></g></g><g fill="#ff00ff" fill-opacity="1"><g transform="translate(98.042405, 73.362893)"><g><path d="M 16.71875 0 L 2.375 0 C 2.007812 0 1.742188 -0.078125 1.578125 -0.234375 C 1.410156 -0.398438 1.328125 -0.671875 1.328125 -1.046875 L 1.328125 -4.921875 C 1.328125 -5.285156 1.382812 -5.609375 1.5 -5.890625 C 1.613281 -6.171875 1.796875 -6.445312 2.046875 -6.71875 L 9.09375 -15.25 L 2.890625 -15.25 C 2.523438 -15.25 2.257812 -15.328125 2.09375 -15.484375 C 1.9375 -15.648438 1.859375 -15.921875 1.859375 -16.296875 L 1.859375 -19.796875 C 1.859375 -20.160156 1.9375 -20.421875 2.09375 -20.578125 C 2.257812 -20.742188 2.523438 -20.828125 2.890625 -20.828125 L 16.203125 -20.828125 C 16.566406 -20.828125 16.832031 -20.742188 17 -20.578125 C 17.164062 -20.421875 17.25 -20.160156 17.25 -19.796875 L 17.25 -15.484375 C 17.25 -15.097656 17.191406 -14.765625 17.078125 -14.484375 C 16.960938 -14.203125 16.773438 -13.925781 16.515625 -13.65625 L 9.8125 -5.53125 L 16.71875 -5.53125 C 17.09375 -5.53125 17.359375 -5.445312 17.515625 -5.28125 C 17.679688 -5.113281 17.765625 -4.847656 17.765625 -4.484375 L 17.765625 -1.046875 C 17.765625 -0.671875 17.679688 -0.398438 17.515625 -0.234375 C 17.359375 -0.078125 17.09375 0 16.71875 0 Z M 16.71875 0 "/></g></g></g><g fill="#ff00ff" fill-opacity="1"><g transform="translate(117.143378, 73.362893)"><g><path d="M 9.546875 -14.765625 L 8.1875 -10.359375 L 12.734375 -10.359375 L 11.375 -14.765625 C 11.289062 -14.929688 11.207031 -15.050781 11.125 -15.125 C 11.039062 -15.207031 10.941406 -15.25 10.828125 -15.25 L 10.09375 -15.25 C 9.976562 -15.25 9.878906 -15.207031 9.796875 -15.125 C 9.710938 -15.050781 9.628906 -14.929688 9.546875 -14.765625 Z M 7.90625 -1.046875 C 7.90625 -0.671875 7.820312 -0.398438 7.65625 -0.234375 C 7.488281 -0.078125 7.222656 0 6.859375 0 L 2.609375 0 C 2.234375 0 1.960938 -0.078125 1.796875 -0.234375 C 1.640625 -0.398438 1.5625 -0.671875 1.5625 -1.046875 L 1.5625 -8.6875 C 1.5625 -9.257812 1.648438 -9.921875 1.828125 -10.671875 C 2.015625 -11.429688 2.300781 -12.3125 2.6875 -13.3125 L 5.203125 -19.875 C 5.316406 -20.207031 5.492188 -20.445312 5.734375 -20.59375 C 5.984375 -20.75 6.300781 -20.828125 6.6875 -20.828125 L 14.46875 -20.828125 C 14.832031 -20.828125 15.132812 -20.75 15.375 -20.59375 C 15.613281 -20.445312 15.796875 -20.207031 15.921875 -19.875 L 18.4375 -13.3125 C 18.820312 -12.3125 19.101562 -11.429688 19.28125 -10.671875 C 19.46875 -9.921875 19.5625 -9.257812 19.5625 -8.6875 L 19.5625 -1.046875 C 19.5625 -0.671875 19.476562 -0.398438 19.3125 -0.234375 C 19.144531 -0.078125 18.878906 0 18.515625 0 L 14.15625 0 C 13.769531 0 13.484375 -0.078125 13.296875 -0.234375 C 13.109375 -0.398438 13.015625 -0.671875 13.015625 -1.046875 L 13.015625 -5.09375 L 7.90625 -5.09375 Z M 7.90625 -1.046875 "/></g></g></g><g fill="#ff00ff" fill-opacity="1"><g transform="translate(138.270208, 73.362893)"><g><path d="M 9.546875 -14.765625 L 8.1875 -10.359375 L 12.734375 -10.359375 L 11.375 -14.765625 C 11.289062 -14.929688 11.207031 -15.050781 11.125 -15.125 C 11.039062 -15.207031 10.941406 -15.25 10.828125 -15.25 L 10.09375 -15.25 C 9.976562 -15.25 9.878906 -15.207031 9.796875 -15.125 C 9.710938 -15.050781 9.628906 -14.929688 9.546875 -14.765625 Z M 7.90625 -1.046875 C 7.90625 -0.671875 7.820312 -0.398438 7.65625 -0.234375 C 7.488281 -0.078125 7.222656 0 6.859375 0 L 2.609375 0 C 2.234375 0 1.960938 -0.078125 1.796875 -0.234375 C 1.640625 -0.398438 1.5625 -0.671875 1.5625 -1.046875 L 1.5625 -8.6875 C 1.5625 -9.257812 1.648438 -9.921875 1.828125 -10.671875 C 2.015625 -11.429688 2.300781 -12.3125 2.6875 -13.3125 L 5.203125 -19.875 C 5.316406 -20.207031 5.492188 -20.445312 5.734375 -20.59375 C 5.984375 -20.75 6.300781 -20.828125 6.6875 -20.828125 L 14.46875 -20.828125 C 14.832031 -20.828125 15.132812 -20.75 15.375 -20.59375 C 15.613281 -20.445312 15.796875 -20.207031 15.921875 -19.875 L 18.4375 -13.3125 C 18.820312 -12.3125 19.101562 -11.429688 19.28125 -10.671875 C 19.46875 -9.921875 19.5625 -9.257812 19.5625 -8.6875 L 19.5625 -1.046875 C 19.5625 -0.671875 19.476562 -0.398438 19.3125 -0.234375 C 19.144531 -0.078125 18.878906 0 18.515625 0 L 14.15625 0 C 13.769531 0 13.484375 -0.078125 13.296875 -0.234375 C 13.109375 -0.398438 13.015625 -0.671875 13.015625 -1.046875 L 13.015625 -5.09375 L 7.90625 -5.09375 Z M 7.90625 -1.046875 "/></g></g></g><g fill="#ff00ff" fill-opacity="1"><g transform="translate(159.397037, 73.362893)"><g><path d="M 8.53125 -15.625 L 8.53125 -11.921875 L 10.703125 -11.921875 C 11.203125 -11.921875 11.539062 -12.050781 11.71875 -12.3125 C 11.894531 -12.570312 11.984375 -12.894531 11.984375 -13.28125 L 11.984375 -14.265625 C 11.984375 -14.648438 11.894531 -14.972656 11.71875 -15.234375 C 11.539062 -15.492188 11.203125 -15.625 10.703125 -15.625 Z M 7.5 0 L 3.03125 0 C 2.664062 0 2.398438 -0.078125 2.234375 -0.234375 C 2.078125 -0.398438 2 -0.671875 2 -1.046875 L 2 -19.796875 C 2 -20.160156 2.078125 -20.421875 2.234375 -20.578125 C 2.398438 -20.742188 2.664062 -20.828125 3.03125 -20.828125 L 12.671875 -20.828125 C 14.835938 -20.828125 16.328125 -20.378906 17.140625 -19.484375 C 17.960938 -18.585938 18.375 -17.425781 18.375 -16 L 18.375 -14.671875 C 18.375 -13.859375 18.253906 -13.164062 18.015625 -12.59375 C 17.773438 -12.03125 17.351562 -11.625 16.75 -11.375 C 17.789062 -11.257812 18.632812 -10.832031 19.28125 -10.09375 C 19.925781 -9.363281 20.25 -8.390625 20.25 -7.171875 L 20.25 -1.046875 C 20.25 -0.671875 20.164062 -0.398438 20 -0.234375 C 19.84375 -0.078125 19.582031 0 19.21875 0 L 14.734375 0 C 14.359375 0 14.085938 -0.078125 13.921875 -0.234375 C 13.765625 -0.398438 13.6875 -0.671875 13.6875 -1.046875 L 13.6875 -5.46875 C 13.6875 -5.894531 13.601562 -6.207031 13.4375 -6.40625 C 13.28125 -6.613281 13 -6.71875 12.59375 -6.71875 L 8.53125 -6.71875 L 8.53125 -1.046875 C 8.53125 -0.671875 8.445312 -0.398438 8.28125 -0.234375 C 8.125 -0.078125 7.863281 0 7.5 0 Z M 7.5 0 "/></g></g></g><g fill="#00ffff" fill-opacity="1"><g transform="translate(57.233863, 72.150236)"><g><path d="M 14.15625 0 L 3.03125 0 C 2.664062 0 2.398438 -0.078125 2.234375 -0.234375 C 2.078125 -0.398438 2 -0.671875 2 -1.046875 L 2 -19.796875 C 2 -20.160156 2.078125 -20.421875 2.234375 -20.578125 C 2.398438 -20.742188 2.664062 -20.828125 3.03125 -20.828125 L 12.265625 -20.828125 C 14.160156 -20.828125 15.5625 -20.46875 16.46875 -19.75 C 17.375 -19.03125 17.828125 -17.914062 17.828125 -16.40625 L 17.828125 -15.015625 C 17.828125 -14.203125 17.6875 -13.539062 17.40625 -13.03125 C 17.125 -12.519531 16.695312 -12.140625 16.125 -11.890625 C 17.351562 -11.773438 18.265625 -11.347656 18.859375 -10.609375 C 19.460938 -9.878906 19.765625 -8.8125 19.765625 -7.40625 L 19.765625 -4.75 C 19.765625 -3.125 19.304688 -1.925781 18.390625 -1.15625 C 17.472656 -0.382812 16.0625 0 14.15625 0 Z M 8.5 -15.921875 L 8.5 -12.796875 L 10.96875 -12.796875 C 11.332031 -12.796875 11.601562 -12.890625 11.78125 -13.078125 C 11.96875 -13.273438 12.0625 -13.566406 12.0625 -13.953125 L 12.0625 -14.765625 C 12.0625 -15.148438 11.96875 -15.4375 11.78125 -15.625 C 11.601562 -15.820312 11.332031 -15.921875 10.96875 -15.921875 Z M 8.5 -8.328125 L 8.5 -4.921875 L 12.265625 -4.921875 C 12.628906 -4.921875 12.90625 -5.015625 13.09375 -5.203125 C 13.28125 -5.398438 13.375 -5.691406 13.375 -6.078125 L 13.375 -7.203125 C 13.375 -7.585938 13.28125 -7.867188 13.09375 -8.046875 C 12.90625 -8.234375 12.628906 -8.328125 12.265625 -8.328125 Z M 8.5 -8.328125 "/></g></g></g><g fill="#00ffff" fill-opacity="1"><g transform="translate(78.215988, 72.150236)"><g><path d="M 9.546875 -14.765625 L 8.1875 -10.359375 L 12.734375 -10.359375 L 11.375 -14.765625 C 11.289062 -14.929688 11.207031 -15.050781 11.125 -15.125 C 11.039062 -15.207031 10.941406 -15.25 10.828125 -15.25 L 10.09375 -15.25 C 9.976562 -15.25 9.878906 -15.207031 9.796875 -15.125 C 9.710938 -15.050781 9.628906 -14.929688 9.546875 -14.765625 Z M 7.90625 -1.046875 C 7.90625 -0.671875 7.820312 -0.398438 7.65625 -0.234375 C 7.488281 -0.078125 7.222656 0 6.859375 0 L 2.609375 0 C 2.234375 0 1.960938 -0.078125 1.796875 -0.234375 C 1.640625 -0.398438 1.5625 -0.671875 1.5625 -1.046875 L 1.5625 -8.6875 C 1.5625 -9.257812 1.648438 -9.921875 1.828125 -10.671875 C 2.015625 -11.429688 2.300781 -12.3125 2.6875 -13.3125 L 5.203125 -19.875 C 5.316406 -20.207031 5.492188 -20.445312 5.734375 -20.59375 C 5.984375 -20.75 6.300781 -20.828125 6.6875 -20.828125 L 14.46875 -20.828125 C 14.832031 -20.828125 15.132812 -20.75 15.375 -20.59375 C 15.613281 -20.445312 15.796875 -20.207031 15.921875 -19.875 L 18.4375 -13.3125 C 18.820312 -12.3125 19.101562 -11.429688 19.28125 -10.671875 C 19.46875 -9.921875 19.5625 -9.257812 19.5625 -8.6875 L 19.5625 -1.046875 C 19.5625 -0.671875 19.476562 -0.398438 19.3125 -0.234375 C 19.144531 -0.078125 18.878906 0 18.515625 0 L 14.15625 0 C 13.769531 0 13.484375 -0.078125 13.296875 -0.234375 C 13.109375 -0.398438 13.015625 -0.671875 13.015625 -1.046875 L 13.015625 -5.09375 L 7.90625 -5.09375 Z M 7.90625 -1.046875 "/></g></g></g><g fill="#00ffff" fill-opacity="1"><g transform="translate(99.342818, 72.150236)"><g><path d="M 16.71875 0 L 2.375 0 C 2.007812 0 1.742188 -0.078125 1.578125 -0.234375 C 1.410156 -0.398438 1.328125 -0.671875 1.328125 -1.046875 L 1.328125 -4.921875 C 1.328125 -5.285156 1.382812 -5.609375 1.5 -5.890625 C 1.613281 -6.171875 1.796875 -6.445312 2.046875 -6.71875 L 9.09375 -15.25 L 2.890625 -15.25 C 2.523438 -15.25 2.257812 -15.328125 2.09375 -15.484375 C 1.9375 -15.648438 1.859375 -15.921875 1.859375 -16.296875 L 1.859375 -19.796875 C 1.859375 -20.160156 1.9375 -20.421875 2.09375 -20.578125 C 2.257812 -20.742188 2.523438 -20.828125 2.890625 -20.828125 L 16.203125 -20.828125 C 16.566406 -20.828125 16.832031 -20.742188 17 -20.578125 C 17.164062 -20.421875 17.25 -20.160156 17.25 -19.796875 L 17.25 -15.484375 C 17.25 -15.097656 17.191406 -14.765625 17.078125 -14.484375 C 16.960938 -14.203125 16.773438 -13.925781 16.515625 -13.65625 L 9.8125 -5.53125 L 16.71875 -5.53125 C 17.09375 -5.53125 17.359375 -5.445312 17.515625 -5.28125 C 17.679688 -5.113281 17.765625 -4.847656 17.765625 -4.484375 L 17.765625 -1.046875 C 17.765625 -0.671875 17.679688 -0.398438 17.515625 -0.234375 C 17.359375 -0.078125 17.09375 0 16.71875 0 Z M 16.71875 0 "/></g></g></g><g fill="#00ffff" fill-opacity="1"><g transform="translate(118.443791, 72.150236)"><g><path d="M 9.546875 -14.765625 L 8.1875 -10.359375 L 12.734375 -10.359375 L 11.375 -14.765625 C 11.289062 -14.929688 11.207031 -15.050781 11.125 -15.125 C 11.039062 -15.207031 10.941406 -15.25 10.828125 -15.25 L 10.09375 -15.25 C 9.976562 -15.25 9.878906 -15.207031 9.796875 -15.125 C 9.710938 -15.050781 9.628906 -14.929688 9.546875 -14.765625 Z M 7.90625 -1.046875 C 7.90625 -0.671875 7.820312 -0.398438 7.65625 -0.234375 C 7.488281 -0.078125 7.222656 0 6.859375 0 L 2.609375 0 C 2.234375 0 1.960938 -0.078125 1.796875 -0.234375 C 1.640625 -0.398438 1.5625 -0.671875 1.5625 -1.046875 L 1.5625 -8.6875 C 1.5625 -9.257812 1.648438 -9.921875 1.828125 -10.671875 C 2.015625 -11.429688 2.300781 -12.3125 2.6875 -13.3125 L 5.203125 -19.875 C 5.316406 -20.207031 5.492188 -20.445312 5.734375 -20.59375 C 5.984375 -20.75 6.300781 -20.828125 6.6875 -20.828125 L 14.46875 -20.828125 C 14.832031 -20.828125 15.132812 -20.75 15.375 -20.59375 C 15.613281 -20.445312 15.796875 -20.207031 15.921875 -19.875 L 18.4375 -13.3125 C 18.820312 -12.3125 19.101562 -11.429688 19.28125 -10.671875 C 19.46875 -9.921875 19.5625 -9.257812 19.5625 -8.6875 L 19.5625 -1.046875 C 19.5625 -0.671875 19.476562 -0.398438 19.3125 -0.234375 C 19.144531 -0.078125 18.878906 0 18.515625 0 L 14.15625 0 C 13.769531 0 13.484375 -0.078125 13.296875 -0.234375 C 13.109375 -0.398438 13.015625 -0.671875 13.015625 -1.046875 L 13.015625 -5.09375 L 7.90625 -5.09375 Z M 7.90625 -1.046875 "/></g></g></g><g fill="#00ffff" fill-opacity="1"><g transform="translate(139.570621, 72.150236)"><g><path d="M 9.546875 -14.765625 L 8.1875 -10.359375 L 12.734375 -10.359375 L 11.375 -14.765625 C 11.289062 -14.929688 11.207031 -15.050781 11.125 -15.125 C 11.039062 -15.207031 10.941406 -15.25 10.828125 -15.25 L 10.09375 -15.25 C 9.976562 -15.25 9.878906 -15.207031 9.796875 -15.125 C 9.710938 -15.050781 9.628906 -14.929688 9.546875 -14.765625 Z M 7.90625 -1.046875 C 7.90625 -0.671875 7.820312 -0.398438 7.65625 -0.234375 C 7.488281 -0.078125 7.222656 0 6.859375 0 L 2.609375 0 C 2.234375 0 1.960938 -0.078125 1.796875 -0.234375 C 1.640625 -0.398438 1.5625 -0.671875 1.5625 -1.046875 L 1.5625 -8.6875 C 1.5625 -9.257812 1.648438 -9.921875 1.828125 -10.671875 C 2.015625 -11.429688 2.300781 -12.3125 2.6875 -13.3125 L 5.203125 -19.875 C 5.316406 -20.207031 5.492188 -20.445312 5.734375 -20.59375 C 5.984375 -20.75 6.300781 -20.828125 6.6875 -20.828125 L 14.46875 -20.828125 C 14.832031 -20.828125 15.132812 -20.75 15.375 -20.59375 C 15.613281 -20.445312 15.796875 -20.207031 15.921875 -19.875 L 18.4375 -13.3125 C 18.820312 -12.3125 19.101562 -11.429688 19.28125 -10.671875 C 19.46875 -9.921875 19.5625 -9.257812 19.5625 -8.6875 L 19.5625 -1.046875 C 19.5625 -0.671875 19.476562 -0.398438 19.3125 -0.234375 C 19.144531 -0.078125 18.878906 0 18.515625 0 L 14.15625 0 C 13.769531 0 13.484375 -0.078125 13.296875 -0.234375 C 13.109375 -0.398438 13.015625 -0.671875 13.015625 -1.046875 L 13.015625 -5.09375 L 7.90625 -5.09375 Z M 7.90625 -1.046875 "/></g></g></g><g fill="#00ffff" fill-opacity="1"><g transform="translate(160.697451, 72.150236)"><g><path d="M 8.53125 -15.625 L 8.53125 -11.921875 L 10.703125 -11.921875 C 11.203125 -11.921875 11.539062 -12.050781 11.71875 -12.3125 C 11.894531 -12.570312 11.984375 -12.894531 11.984375 -13.28125 L 11.984375 -14.265625 C 11.984375 -14.648438 11.894531 -14.972656 11.71875 -15.234375 C 11.539062 -15.492188 11.203125 -15.625 10.703125 -15.625 Z M 7.5 0 L 3.03125 0 C 2.664062 0 2.398438 -0.078125 2.234375 -0.234375 C 2.078125 -0.398438 2 -0.671875 2 -1.046875 L 2 -19.796875 C 2 -20.160156 2.078125 -20.421875 2.234375 -20.578125 C 2.398438 -20.742188 2.664062 -20.828125 3.03125 -20.828125 L 12.671875 -20.828125 C 14.835938 -20.828125 16.328125 -20.378906 17.140625 -19.484375 C 17.960938 -18.585938 18.375 -17.425781 18.375 -16 L 18.375 -14.671875 C 18.375 -13.859375 18.253906 -13.164062 18.015625 -12.59375 C 17.773438 -12.03125 17.351562 -11.625 16.75 -11.375 C 17.789062 -11.257812 18.632812 -10.832031 19.28125 -10.09375 C 19.925781 -9.363281 20.25 -8.390625 20.25 -7.171875 L 20.25 -1.046875 C 20.25 -0.671875 20.164062 -0.398438 20 -0.234375 C 19.84375 -0.078125 19.582031 0 19.21875 0 L 14.734375 0 C 14.359375 0 14.085938 -0.078125 13.921875 -0.234375 C 13.765625 -0.398438 13.6875 -0.671875 13.6875 -1.046875 L 13.6875 -5.46875 C 13.6875 -5.894531 13.601562 -6.207031 13.4375 -6.40625 C 13.28125 -6.613281 13 -6.71875 12.59375 -6.71875 L 8.53125 -6.71875 L 8.53125 -1.046875 C 8.53125 -0.671875 8.445312 -0.398438 8.28125 -0.234375 C 8.125 -0.078125 7.863281 0 7.5 0 Z M 7.5 0 "/></g></g></g><g fill="#5e17eb" fill-opacity="1"><g transform="translate(56.583658, 72.756564)"><g><path d="M 14.15625 0 L 3.03125 0 C 2.664062 0 2.398438 -0.078125 2.234375 -0.234375 C 2.078125 -0.398438 2 -0.671875 2 -1.046875 L 2 -19.796875 C 2 -20.160156 2.078125 -20.421875 2.234375 -20.578125 C 2.398438 -20.742188 2.664062 -20.828125 3.03125 -20.828125 L 12.265625 -20.828125 C 14.160156 -20.828125 15.5625 -20.46875 16.46875 -19.75 C 17.375 -19.03125 17.828125 -17.914062 17.828125 -16.40625 L 17.828125 -15.015625 C 17.828125 -14.203125 17.6875 -13.539062 17.40625 -13.03125 C 17.125 -12.519531 16.695312 -12.140625 16.125 -11.890625 C 17.351562 -11.773438 18.265625 -11.347656 18.859375 -10.609375 C 19.460938 -9.878906 19.765625 -8.8125 19.765625 -7.40625 L 19.765625 -4.75 C 19.765625 -3.125 19.304688 -1.925781 18.390625 -1.15625 C 17.472656 -0.382812 16.0625 0 14.15625 0 Z M 8.5 -15.921875 L 8.5 -12.796875 L 10.96875 -12.796875 C 11.332031 -12.796875 11.601562 -12.890625 11.78125 -13.078125 C 11.96875 -13.273438 12.0625 -13.566406 12.0625 -13.953125 L 12.0625 -14.765625 C 12.0625 -15.148438 11.96875 -15.4375 11.78125 -15.625 C 11.601562 -15.820312 11.332031 -15.921875 10.96875 -15.921875 Z M 8.5 -8.328125 L 8.5 -4.921875 L 12.265625 -4.921875 C 12.628906 -4.921875 12.90625 -5.015625 13.09375 -5.203125 C 13.28125 -5.398438 13.375 -5.691406 13.375 -6.078125 L 13.375 -7.203125 C 13.375 -7.585938 13.28125 -7.867188 13.09375 -8.046875 C 12.90625 -8.234375 12.628906 -8.328125 12.265625 -8.328125 Z M 8.5 -8.328125 "/></g></g></g><g fill="#5e17eb" fill-opacity="1"><g transform="translate(77.565782, 72.756564)"><g><path d="M 9.546875 -14.765625 L 8.1875 -10.359375 L 12.734375 -10.359375 L 11.375 -14.765625 C 11.289062 -14.929688 11.207031 -15.050781 11.125 -15.125 C 11.039062 -15.207031 10.941406 -15.25 10.828125 -15.25 L 10.09375 -15.25 C 9.976562 -15.25 9.878906 -15.207031 9.796875 -15.125 C 9.710938 -15.050781 9.628906 -14.929688 9.546875 -14.765625 Z M 7.90625 -1.046875 C 7.90625 -0.671875 7.820312 -0.398438 7.65625 -0.234375 C 7.488281 -0.078125 7.222656 0 6.859375 0 L 2.609375 0 C 2.234375 0 1.960938 -0.078125 1.796875 -0.234375 C 1.640625 -0.398438 1.5625 -0.671875 1.5625 -1.046875 L 1.5625 -8.6875 C 1.5625 -9.257812 1.648438 -9.921875 1.828125 -10.671875 C 2.015625 -11.429688 2.300781 -12.3125 2.6875 -13.3125 L 5.203125 -19.875 C 5.316406 -20.207031 5.492188 -20.445312 5.734375 -20.59375 C 5.984375 -20.75 6.300781 -20.828125 6.6875 -20.828125 L 14.46875 -20.828125 C 14.832031 -20.828125 15.132812 -20.75 15.375 -20.59375 C 15.613281 -20.445312 15.796875 -20.207031 15.921875 -19.875 L 18.4375 -13.3125 C 18.820312 -12.3125 19.101562 -11.429688 19.28125 -10.671875 C 19.46875 -9.921875 19.5625 -9.257812 19.5625 -8.6875 L 19.5625 -1.046875 C 19.5625 -0.671875 19.476562 -0.398438 19.3125 -0.234375 C 19.144531 -0.078125 18.878906 0 18.515625 0 L 14.15625 0 C 13.769531 0 13.484375 -0.078125 13.296875 -0.234375 C 13.109375 -0.398438 13.015625 -0.671875 13.015625 -1.046875 L 13.015625 -5.09375 L 7.90625 -5.09375 Z M 7.90625 -1.046875 "/></g></g></g><g fill="#5e17eb" fill-opacity="1"><g transform="translate(98.692612, 72.756564)"><g><path d="M 16.71875 0 L 2.375 0 C 2.007812 0 1.742188 -0.078125 1.578125 -0.234375 C 1.410156 -0.398438 1.328125 -0.671875 1.328125 -1.046875 L 1.328125 -4.921875 C 1.328125 -5.285156 1.382812 -5.609375 1.5 -5.890625 C 1.613281 -6.171875 1.796875 -6.445312 2.046875 -6.71875 L 9.09375 -15.25 L 2.890625 -15.25 C 2.523438 -15.25 2.257812 -15.328125 2.09375 -15.484375 C 1.9375 -15.648438 1.859375 -15.921875 1.859375 -16.296875 L 1.859375 -19.796875 C 1.859375 -20.160156 1.9375 -20.421875 2.09375 -20.578125 C 2.257812 -20.742188 2.523438 -20.828125 2.890625 -20.828125 L 16.203125 -20.828125 C 16.566406 -20.828125 16.832031 -20.742188 17 -20.578125 C 17.164062 -20.421875 17.25 -20.160156 17.25 -19.796875 L 17.25 -15.484375 C 17.25 -15.097656 17.191406 -14.765625 17.078125 -14.484375 C 16.960938 -14.203125 16.773438 -13.925781 16.515625 -13.65625 L 9.8125 -5.53125 L 16.71875 -5.53125 C 17.09375 -5.53125 17.359375 -5.445312 17.515625 -5.28125 C 17.679688 -5.113281 17.765625 -4.847656 17.765625 -4.484375 L 17.765625 -1.046875 C 17.765625 -0.671875 17.679688 -0.398438 17.515625 -0.234375 C 17.359375 -0.078125 17.09375 0 16.71875 0 Z M 16.71875 0 "/></g></g></g><g fill="#5e17eb" fill-opacity="1"><g transform="translate(117.793585, 72.756564)"><g><path d="M 9.546875 -14.765625 L 8.1875 -10.359375 L 12.734375 -10.359375 L 11.375 -14.765625 C 11.289062 -14.929688 11.207031 -15.050781 11.125 -15.125 C 11.039062 -15.207031 10.941406 -15.25 10.828125 -15.25 L 10.09375 -15.25 C 9.976562 -15.25 9.878906 -15.207031 9.796875 -15.125 C 9.710938 -15.050781 9.628906 -14.929688 9.546875 -14.765625 Z M 7.90625 -1.046875 C 7.90625 -0.671875 7.820312 -0.398438 7.65625 -0.234375 C 7.488281 -0.078125 7.222656 0 6.859375 0 L 2.609375 0 C 2.234375 0 1.960938 -0.078125 1.796875 -0.234375 C 1.640625 -0.398438 1.5625 -0.671875 1.5625 -1.046875 L 1.5625 -8.6875 C 1.5625 -9.257812 1.648438 -9.921875 1.828125 -10.671875 C 2.015625 -11.429688 2.300781 -12.3125 2.6875 -13.3125 L 5.203125 -19.875 C 5.316406 -20.207031 5.492188 -20.445312 5.734375 -20.59375 C 5.984375 -20.75 6.300781 -20.828125 6.6875 -20.828125 L 14.46875 -20.828125 C 14.832031 -20.828125 15.132812 -20.75 15.375 -20.59375 C 15.613281 -20.445312 15.796875 -20.207031 15.921875 -19.875 L 18.4375 -13.3125 C 18.820312 -12.3125 19.101562 -11.429688 19.28125 -10.671875 C 19.46875 -9.921875 19.5625 -9.257812 19.5625 -8.6875 L 19.5625 -1.046875 C 19.5625 -0.671875 19.476562 -0.398438 19.3125 -0.234375 C 19.144531 -0.078125 18.878906 0 18.515625 0 L 14.15625 0 C 13.769531 0 13.484375 -0.078125 13.296875 -0.234375 C 13.109375 -0.398438 13.015625 -0.671875 13.015625 -1.046875 L 13.015625 -5.09375 L 7.90625 -5.09375 Z M 7.90625 -1.046875 "/></g></g></g><g fill="#5e17eb" fill-opacity="1"><g transform="translate(138.920415, 72.756564)"><g><path d="M 9.546875 -14.765625 L 8.1875 -10.359375 L 12.734375 -10.359375 L 11.375 -14.765625 C 11.289062 -14.929688 11.207031 -15.050781 11.125 -15.125 C 11.039062 -15.207031 10.941406 -15.25 10.828125 -15.25 L 10.09375 -15.25 C 9.976562 -15.25 9.878906 -15.207031 9.796875 -15.125 C 9.710938 -15.050781 9.628906 -14.929688 9.546875 -14.765625 Z M 7.90625 -1.046875 C 7.90625 -0.671875 7.820312 -0.398438 7.65625 -0.234375 C 7.488281 -0.078125 7.222656 0 6.859375 0 L 2.609375 0 C 2.234375 0 1.960938 -0.078125 1.796875 -0.234375 C 1.640625 -0.398438 1.5625 -0.671875 1.5625 -1.046875 L 1.5625 -8.6875 C 1.5625 -9.257812 1.648438 -9.921875 1.828125 -10.671875 C 2.015625 -11.429688 2.300781 -12.3125 2.6875 -13.3125 L 5.203125 -19.875 C 5.316406 -20.207031 5.492188 -20.445312 5.734375 -20.59375 C 5.984375 -20.75 6.300781 -20.828125 6.6875 -20.828125 L 14.46875 -20.828125 C 14.832031 -20.828125 15.132812 -20.75 15.375 -20.59375 C 15.613281 -20.445312 15.796875 -20.207031 15.921875 -19.875 L 18.4375 -13.3125 C 18.820312 -12.3125 19.101562 -11.429688 19.28125 -10.671875 C 19.46875 -9.921875 19.5625 -9.257812 19.5625 -8.6875 L 19.5625 -1.046875 C 19.5625 -0.671875 19.476562 -0.398438 19.3125 -0.234375 C 19.144531 -0.078125 18.878906 0 18.515625 0 L 14.15625 0 C 13.769531 0 13.484375 -0.078125 13.296875 -0.234375 C 13.109375 -0.398438 13.015625 -0.671875 13.015625 -1.046875 L 13.015625 -5.09375 L 7.90625 -5.09375 Z M 7.90625 -1.046875 "/></g></g></g><g fill="#5e17eb" fill-opacity="1"><g transform="translate(160.047245, 72.756564)"><g><path d="M 8.53125 -15.625 L 8.53125 -11.921875 L 10.703125 -11.921875 C 11.203125 -11.921875 11.539062 -12.050781 11.71875 -12.3125 C 11.894531 -12.570312 11.984375 -12.894531 11.984375 -13.28125 L 11.984375 -14.265625 C 11.984375 -14.648438 11.894531 -14.972656 11.71875 -15.234375 C 11.539062 -15.492188 11.203125 -15.625 10.703125 -15.625 Z M 7.5 0 L 3.03125 0 C 2.664062 0 2.398438 -0.078125 2.234375 -0.234375 C 2.078125 -0.398438 2 -0.671875 2 -1.046875 L 2 -19.796875 C 2 -20.160156 2.078125 -20.421875 2.234375 -20.578125 C 2.398438 -20.742188 2.664062 -20.828125 3.03125 -20.828125 L 12.671875 -20.828125 C 14.835938 -20.828125 16.328125 -20.378906 17.140625 -19.484375 C 17.960938 -18.585938 18.375 -17.425781 18.375 -16 L 18.375 -14.671875 C 18.375 -13.859375 18.253906 -13.164062 18.015625 -12.59375 C 17.773438 -12.03125 17.351562 -11.625 16.75 -11.375 C 17.789062 -11.257812 18.632812 -10.832031 19.28125 -10.09375 C 19.925781 -9.363281 20.25 -8.390625 20.25 -7.171875 L 20.25 -1.046875 C 20.25 -0.671875 20.164062 -0.398438 20 -0.234375 C 19.84375 -0.078125 19.582031 0 19.21875 0 L 14.734375 0 C 14.359375 0 14.085938 -0.078125 13.921875 -0.234375 C 13.765625 -0.398438 13.6875 -0.671875 13.6875 -1.046875 L 13.6875 -5.46875 C 13.6875 -5.894531 13.601562 -6.207031 13.4375 -6.40625 C 13.28125 -6.613281 13 -6.71875 12.59375 -6.71875 L 8.53125 -6.71875 L 8.53125 -1.046875 C 8.53125 -0.671875 8.445312 -0.398438 8.28125 -0.234375 C 8.125 -0.078125 7.863281 0 7.5 0 Z M 7.5 0 "/></g></g></g></svg>